<svg xmlns="http://www.w3.org/2000/svg" viewBox="0 0 1066 142.8"><defs><style>.cls-1{fill:#fff;}</style></defs><title>bbmtl_logo-white</title><g id="Calque_2" data-name="Calque 2"><g id="logo"><path class="cls-1" d="M27,0V58A37.42,37.42,0,0,1,57.5,43.21c25.77,0,43.8,20.55,43.8,49.75s-18.21,49.75-43.8,49.75a38.37,38.37,0,0,1-30.82-14.78V139.1H0V0Zm25.3,69.89c-12.77,0-21.93,9.82-21.93,23.07S39.57,116,52.34,116c12.6,0,21.92-9.65,21.92-23.07C74.26,79.71,65.1,69.89,52.34,69.89Z"/><path class="cls-1" d="M167.47,142.71c-30.28,0-51.19-20.37-51.19-49.75s20.91-49.75,51.19-49.75c30.46,0,51.37,20.37,51.37,49.75S197.93,142.71,167.47,142.71Zm0-75.71c-14.06,0-24.15,10.82-24.15,26s10.09,26,24.15,26c14.24,0,24.33-10.82,24.33-26S181.71,67,167.47,67Z"/><path class="cls-1" d="M236.17,104.5V86.14h27V99.81c0,11.17,6.5,19.11,17.13,19.11s19.28-8.47,19.28-20.19V86.14h27V104.5c0,22.17-24.51,38.21-45.24,38.21S236.17,126.67,236.17,104.5Z"/><path class="cls-1" d="M420,83.05c-2.4-9.92-11.19-16-21.71-16-13.49,0-24.66,8.7-24.66,26s10.85,26,24.53,26c10.89,0,19.44-6.13,22-16l25.87,3.24c-3.52,21.27-24.2,36.59-48.59,36.59C367.76,142.71,346,121.8,346,93s21.62-49.75,51.55-49.75c24.76,0,45.45,15.32,48.4,36.59Z"/><path class="cls-1" d="M553.08,80.71V139.1H526v-53C526,74.94,519.55,67,508.74,67c-10.45,0-19.11,8.48-19.11,20.19V139.1h-27V0h27V57.27c6.13-9,17.13-14.06,28.3-14.06C539,43.21,553.08,58.72,553.08,80.71Z"/><path class="cls-1" d="M665,119.9c-6.9,13.45-24.1,22.81-43.59,22.81-29.74,0-50.83-20.73-50.83-50.47,0-28.84,21.09-49,50.83-49,29.56,0,49.75,20.19,49.75,49.39,0,2.34,0,7.3-.54,9.26l-71.87-.13C601.43,114,610.26,122,622.14,122a24.59,24.59,0,0,0,18.12-7.56ZM643.43,82.4c-2.29-10.73-11-18.46-22.55-18.46-11.27,0-19.31,7.28-22.12,18.46Z"/><path class="cls-1" d="M760.26,0V58a37.42,37.42,0,0,1,30.46-14.78c25.77,0,43.8,20.55,43.8,49.75s-18.21,49.75-43.8,49.75a38.41,38.41,0,0,1-30.83-14.78V139.1H733.22V0Zm25.29,69.89c-12.76,0-21.92,9.82-21.92,23.07S772.79,116,785.55,116c12.6,0,21.93-9.65,21.93-23.07C807.48,79.71,798.32,69.89,785.55,69.89Z"/><path class="cls-1" d="M1059.84,120c-6.9,13.45-24.09,22.81-43.59,22.81-29.74,0-50.83-20.73-50.83-50.47,0-28.84,21.09-49,50.83-49,29.56,0,49.75,20.19,49.75,49.39,0,2.34,0,7.3-.54,9.26l-71.87-.13c2.67,12.3,11.51,20.25,23.38,20.25a24.59,24.59,0,0,0,18.12-7.56Zm-21.57-37.5C1036,71.76,1027.29,64,1015.71,64c-11.27,0-19.31,7.28-22.11,18.46Z"/><path class="cls-1" d="M944.1,120c-6.9,13.45-24.1,22.81-43.6,22.81-29.74,0-50.82-20.73-50.82-50.47,0-28.84,21.08-49,50.82-49,29.56,0,49.76,20.19,49.76,49.39,0,2.34,0,7.3-.54,9.26l-71.87-.13c2.67,12.3,11.5,20.25,23.38,20.25a24.55,24.55,0,0,0,18.11-7.56Zm-21.58-37.5C920.23,71.76,911.55,64,900,64c-11.28,0-19.31,7.28-22.12,18.46ZM883.15,18.28c9.93,0,10.09-11.14,10.09-18.28h23.54V1c0,19.13-13.44,31.58-33.63,31.58Z"/></g></g></svg>