<svg xmlns="http://www.w3.org/2000/svg" viewBox="0 0 1066 282.65"><defs><style>.cls-1{fill:#ed325a;}</style></defs><title>biglogo-rose</title><g id="Calque_2" data-name="Calque 2"><g id="titres"><path class="cls-1" d="M27.11,0V58.15A37.51,37.51,0,0,1,57.65,43.33c25.85,0,43.92,20.6,43.92,49.88s-18.25,49.88-43.92,49.88a38.46,38.46,0,0,1-30.9-14.82v11.2H0V0ZM52.47,70.07c-12.79,0-22,9.85-22,23.14s9.19,23.13,22,23.13,22-9.68,22-23.13C74.46,79.92,65.27,70.07,52.47,70.07Z"/><path class="cls-1" d="M167.92,143.09c-30.37,0-51.33-20.42-51.33-49.88s21-49.88,51.33-49.88c30.54,0,51.5,20.42,51.5,49.88S198.46,143.09,167.92,143.09Zm0-75.91c-14.1,0-24.22,10.85-24.22,26s10.12,26,24.22,26c14.27,0,24.39-10.84,24.39-26S182.19,67.18,167.92,67.18Z"/><path class="cls-1" d="M236.8,104.77V86.37h27.1v13.71c0,11.2,7.6,19.15,18.26,19.15s18.25-8.49,18.25-20.24V86.37h27.11v18.4c0,22.23-24.58,38.32-45.36,38.32S236.8,127,236.8,104.77Z"/><path class="cls-1" d="M421.15,83.27c-2.4-9.94-11.21-16.09-21.77-16.09-13.52,0-24.72,8.72-24.72,26s10.88,26,24.59,26c10.93,0,19.5-6.14,22.09-16.08l25.93,3.25c-3.52,21.33-24.26,36.69-48.72,36.69-29.82,0-51.68-21-51.68-49.88s21.68-49.88,51.68-49.88c24.83,0,45.57,15.36,48.54,36.69Z"/><path class="cls-1" d="M554.55,80.92v58.55H527.44V86.34c0-11.2-6.51-19.16-17.35-19.16-10.48,0-19.15,8.5-19.15,20.25v52H463.82V0h27.12V57.42c6.14-9,17.16-14.09,28.37-14.09C540.45,43.33,554.55,58.87,554.55,80.92Z"/><path class="cls-1" d="M666.78,120.22c-6.92,13.48-24.16,22.87-43.71,22.87-29.82,0-51-20.78-51-50.6,0-28.92,21.15-49.16,51-49.16C652.7,43.33,673,63.57,673,92.85c0,2.35,0,7.32-.54,9.28L600.35,102c2.68,12.33,11.53,20.31,23.44,20.31A24.63,24.63,0,0,0,642,114.72Zm-21.64-37.6c-2.29-10.76-11-18.51-22.61-18.51-11.31,0-19.36,7.3-22.18,18.51Z"/><path class="cls-1" d="M759.44,139.56v58.15A37.53,37.53,0,0,1,790,182.89c25.84,0,43.92,20.6,43.92,49.88S815.65,282.65,790,282.65a38.5,38.5,0,0,1-30.91-14.81V279H732.33V139.56Zm25.37,70.08c-12.8,0-22,9.84-22,23.13s9.19,23.14,22,23.14c12.63,0,22-9.68,22-23.14C806.8,219.48,797.61,209.64,784.81,209.64Z"/><path class="cls-1" d="M1059.83,259.78c-6.92,13.49-24.16,22.87-43.71,22.87-29.82,0-51-20.78-51-50.6,0-28.92,21.15-49.16,51-49.16,29.64,0,49.88,20.24,49.88,49.52,0,2.35,0,7.32-.54,9.28l-72.06-.12c2.68,12.33,11.53,20.3,23.44,20.3a24.66,24.66,0,0,0,18.17-7.58Zm-21.64-37.59c-2.29-10.77-11-18.51-22.61-18.51-11.3,0-19.36,7.29-22.18,18.51Z"/><path class="cls-1" d="M943.78,259.78c-6.93,13.49-24.16,22.87-43.71,22.87-29.82,0-51-20.78-51-50.6,0-28.92,21.15-49.16,51-49.16,29.63,0,49.88,20.24,49.88,49.52,0,2.35,0,7.32-.54,9.28l-72.06-.12c2.68,12.33,11.53,20.3,23.44,20.3A24.64,24.64,0,0,0,919,254.29Zm-21.64-37.59c-2.29-10.77-11-18.51-22.61-18.51-11.31,0-19.36,7.29-22.18,18.51ZM882.66,157.8c10,0,10.12-11.16,10.12-18.33h23.61v1c0,19.18-13.49,31.66-33.73,31.66Z"/></g></g></svg>