<svg xmlns="http://www.w3.org/2000/svg" viewBox="0 0 1068.17 300"><defs><style>.cls-1{fill:#ed325a;}</style></defs><title>merci_header</title><g id="Calque_2" data-name="Calque 2"><g id="titres"><path class="cls-1" d="M0,92.46H56.17v23.8C68.66,96,90.11,84.66,114.7,84.66c28.86,0,53.05,13.65,64.36,35.5,12.88-21.85,39.41-35.11,67.1-35.11,45.26,0,76.86,33.54,76.86,81.53V292.2H264.5V178.28c0-23.79-14.82-41.35-37.06-42.13-22.63,0-37.84,17.56-37.84,42.13V292.2H131.08V178.28c0-25.35-14.05-42.13-35.89-42.13-22.24,0-36.67,16.78-36.67,42.13V292.2H0Z"/><path class="cls-1" d="M513.06,228.61l51.1,11.31c-10.53,34.72-51.5,60.08-98.7,60.08-64.37,0-110-44.86-110-109.23,0-62.42,45.64-106.11,110-106.11,64,0,107.67,43.69,107.67,106.89,0,5.07,0,13.26-.78,17.55l-156.44-.39C421,236.8,440.49,255.14,467,255.14,488.09,255.14,506,243.82,513.06,228.61Zm.77-55c-3.51-25.36-23-44.08-49.54-44.08-25.75,0-43.7,17.56-48.77,44.08Z"/><path class="cls-1" d="M741.05,90.12V142c-11.31-4.68-24.19-7.41-32.77-7.41-25.36,0-42.13,21.46-42.13,51.5V292.2H607.63V92.46h56.18v25.35C675.52,97.92,695,85.05,717.26,85.05A65.18,65.18,0,0,1,741.05,90.12Z"/><path class="cls-1" d="M914.4,170.87c-5.07-21.46-25-37.06-47.21-37.06-28.47,0-50.71,24.58-50.71,58.52s21.85,58.52,50.71,58.52a49,49,0,0,0,47.6-37.06l54.62,7C962,266.84,918.3,300,866.81,300,804,300,758,254.75,758,192.33S803.61,84.66,866.81,84.66c52.27,0,96,33.15,102.21,79.19Z"/><path class="cls-1" d="M1034.23,0c19.89,0,33.94,13.65,33.94,32.77,0,19.51-14.05,33.16-33.94,33.16s-33.94-13.65-33.94-33.16C1000.29,13.65,1014.33,0,1034.23,0Zm29.26,292.2H1005V92.46h58.52Z"/></g></g></svg>