<svg xmlns="http://www.w3.org/2000/svg" viewBox="0 0 581.76 579.49"><defs><style>.cls-1{fill:#f6f7d8;fill-rule:evenodd;}</style></defs><title>pattern_2</title><g id="Calque_2" data-name="Calque 2"><g id="patterns"><path class="cls-1" d="M203.15,308.39a25.26,25.26,0,0,1,6.86.81c.4.08.78.25.8.67a1.33,1.33,0,0,1-.35,1,5,5,0,0,1-3.49,1.16c-.67-.06-1.34-.12-2-.2-2.77-.33-2.77-.33-4.83-3.07.44-.23.72-.52,1-.53C201.82,308.23,202.5,308.44,203.15,308.39Z"/><path class="cls-1" d="M192.52,329.24c1.83.51,1.83.5,2,2.46,0,.38.1.76.18,1.26a2.56,2.56,0,0,1-2.72.21,7.82,7.82,0,0,0-2.36-.65,2.44,2.44,0,0,1-2.32-2.16c-.12-.59-.28-1.17-.43-1.77a3.68,3.68,0,0,1,3.32-.15C191,328.67,191.73,329,192.52,329.24Z"/><path class="cls-1" d="M201.62,324.35a1.84,1.84,0,0,1,1.16.64,2.49,2.49,0,0,0,1.7,1,5.9,5.9,0,0,1,1.3.39,1.89,1.89,0,0,1,.54.49.88.88,0,0,1-.68,1.16,5.87,5.87,0,0,1-3.72-.54,25.72,25.72,0,0,0-5.15-1.71,2.12,2.12,0,0,1-1-.45,1.38,1.38,0,0,1-.38-1c.06-.31.42-.57.71-.77a1,1,0,0,1,.65,0C198.37,323.79,200,324,201.62,324.35Z"/><path class="cls-1" d="M187.56,308.63c-.05,1.52-.32,1.84-1.43,1.69a4.81,4.81,0,0,1-1.3-.35c-1.17-.55-2.32-1.14-3.46-1.75a5.84,5.84,0,0,1-1.11-.81,1.06,1.06,0,0,1-.29-1.28,10.64,10.64,0,0,1,.74-1.2C183.07,306.2,185.47,307.11,187.56,308.63Z"/><path class="cls-1" d="M184.38,299.14a8.38,8.38,0,0,1,3,1.24c-.27,2.07-.89,2.32-2.4,1.9a42.9,42.9,0,0,1-4.39-1.72,1.65,1.65,0,0,1-.38-.27,1.22,1.22,0,0,1-.54-1.4,1,1,0,0,1,1.26-.65C182.07,298.51,183.23,298.81,184.38,299.14Z"/><path class="cls-1" d="M197.87,304.75a4.12,4.12,0,0,1,1,.57,1.12,1.12,0,0,1,.34.79,1.08,1.08,0,0,1-.47.71,1.61,1.61,0,0,1-.85.17,10.32,10.32,0,0,1-4.49-1.35,2.09,2.09,0,0,1-1.26-1.57c-.05-.23-.09-.46-.16-.69-.12-.41-.12-.85.24-1a1.32,1.32,0,0,1,1,0C194.79,303.13,196.33,304,197.87,304.75Z"/><path class="cls-1" d="M179.28,317.69c.18-.05.32-.15.45-.13,2.5.5,4.46,2.15,6.46,3.68a1.33,1.33,0,0,1,.14.19.91.91,0,0,1-.52,1.44,2.48,2.48,0,0,1-1.48-.22c-1.45-.83-2.85-1.77-4.25-2.7a3,3,0,0,1-.81-.82,1.59,1.59,0,0,1-.13-.22l-.14-.44A.9.9,0,0,1,179.28,317.69Z"/><path class="cls-1" d="M198.36,316.29c1.25.53,2.5,1.07,3.73,1.65a12.89,12.89,0,0,1,1.37.84A1,1,0,0,1,204,320a1,1,0,0,1-1.19.74,3,3,0,0,1-1.09-.17q-2.15-1.06-4.25-2.21a2.09,2.09,0,0,1-.6-.68,1.05,1.05,0,0,1,.77-1.51A3.1,3.1,0,0,1,198.36,316.29Z"/><path class="cls-1" d="M187.92,313.55c1.37.82,2.65,1.8,4,2.73a3.65,3.65,0,0,1,.54.64c-.19.27-.33.72-.58.79a2.51,2.51,0,0,1-1.51,0,15,15,0,0,1-5.08-3.39,1,1,0,0,1-.1-.84c.1-.23.44-.51.65-.48A5.75,5.75,0,0,1,187.92,313.55Z"/><path class="cls-1" d="M197.1,312.56a3,3,0,0,1,1.15,1.94,2,2,0,0,1-2.37,0,43,43,0,0,1-3.91-2.82,1.37,1.37,0,0,1-.28-1c0-.39.65-.67,1.09-.51A10,10,0,0,1,197.1,312.56Z"/><path class="cls-1" d="M455.05,372.77c2.5-1.12,4.92-2.44,7.73-2.94l2.3,2c-2.89,1.8-5.41,3.42-8,4.95-1.85,1.11-2.37.83-3.25-1.39a1.55,1.55,0,0,1,.23-1.75A3.3,3.3,0,0,1,455.05,372.77Z"/><path class="cls-1" d="M446.9,416.12c2.41-2.16,2.41-2.16,6.2-1.68a4.23,4.23,0,0,1-.37,1.34c-.5.6-1.2,1-1.67,1.65a29.07,29.07,0,0,1-6,5.38c-.38.28-.81.48-1.16.14a1.68,1.68,0,0,1-.54-1.17,6.54,6.54,0,0,1,1.8-4.06Z"/><path class="cls-1" d="M442.42,385.16a2.54,2.54,0,0,1,3.53-.23c.56.39,1.15.73,1.74,1.11a4.48,4.48,0,0,1-2.47,3.06c-.8.51-1.67.9-2.46,1.41-1.84,1.18-1.83,1.2-3.51-.33-.32-.29-.68-.54-1.14-.9a3.1,3.1,0,0,1,1.95-2.57A8.77,8.77,0,0,0,442.42,385.16Z"/><path class="cls-1" d="M442.17,397.13a2.21,2.21,0,0,1,1.14-.51,1.43,1.43,0,0,1,1.1.52,2,2,0,0,1,.06,1.26,1.23,1.23,0,0,1-.47.62c-1.47,1.23-2.93,2.47-4.45,3.65a2,2,0,0,1-1.41.47,2.63,2.63,0,0,0-2.15.64,7.25,7.25,0,0,1-1.32.82,2,2,0,0,1-.81.06,1.11,1.11,0,0,1-.4-1.57,6.91,6.91,0,0,1,3.33-2.84A28.34,28.34,0,0,0,442.17,397.13Z"/><path class="cls-1" d="M482.78,387.39c1.3.84,1.43,2.93.16,3.59-1.91,1-3.89,1.88-5.86,2.76a1.23,1.23,0,0,1-1.65-.36,1.69,1.69,0,0,1-.21-1.8c.09-.15.17-.31.27-.46,1.63-2.28,4-3.26,6.54-3.9A1.07,1.07,0,0,1,482.78,387.39Z"/><path class="cls-1" d="M494.29,389.41a1,1,0,0,1,0,1.47,45.64,45.64,0,0,1-6.07,6.5c-.23.2-.61.2-1.05.32-.24-.45-.64-.85-.61-1.2a5,5,0,0,1,.55-2c1.36-2.38,3.52-3.84,5.71-5.24A1.15,1.15,0,0,1,494.29,389.41Z"/><path class="cls-1" d="M478.39,382.75a2.3,2.3,0,0,1,1-.11,1.55,1.55,0,0,1,1.55,1.54,41.13,41.13,0,0,1-9.45,4.08,4.51,4.51,0,0,1-.48-1.16,1.76,1.76,0,0,1,1.18-1.88C474.24,384.34,476.31,383.55,478.39,382.75Z"/><path class="cls-1" d="M490.1,373.62a4.12,4.12,0,0,1,1.74-.45c.7-.05,1.13.39,1.24,1.47-1.28,1-2.48,2-3.79,2.81a42.43,42.43,0,0,1-3.86,2.12.92.92,0,0,1-1.37-.33,1.43,1.43,0,0,1,0-1.55,2,2,0,0,1,.55-.56C486.45,375.94,488.25,374.74,490.1,373.62Z"/><path class="cls-1" d="M464.09,399.9c1.34-.57,2.71-1.1,4.08-1.59a6,6,0,0,1,1.52-.3,1.16,1.16,0,0,1,1.24.82,15.94,15.94,0,0,1,.38,1.66c-2.85,1-5.45,2.38-8.29,2.95-1.17-1.32-1.22-1.83-.22-2.68A4.77,4.77,0,0,1,464.09,399.9Z"/><path class="cls-1" d="M474.9,404a2,2,0,0,1,.5-.11,1.31,1.31,0,0,1,1.54.71,1.35,1.35,0,0,1-.47,1.66c-1.12.79-2.26,1.56-3.41,2.3a8.94,8.94,0,0,1-3.31,1.59c-1.44-2-1.15-2.73.35-3.71A44.13,44.13,0,0,1,474.9,404Z"/><path class="cls-1" d="M460.86,411.1a2.17,2.17,0,0,1,2.24.2c.22.15.44.31.67.44.42.24.78.61.63,1.07a1.6,1.6,0,0,1-.81.9c-1.82.75-3.67,1.42-5.51,2.11a4.65,4.65,0,0,1-1.22.38,1.15,1.15,0,0,1-.89-.36,1.38,1.38,0,0,1-.2-1,2,2,0,0,1,.53-.88A11.36,11.36,0,0,1,460.86,411.1Z"/><path class="cls-1" d="M471,374.1a1.39,1.39,0,0,1,1-.28,2,2,0,0,1,1.09.6c.19.22.14.67.17.85a2.45,2.45,0,0,1-.31.65c-1.57,1.36-3.14,2.73-4.74,4.06a2.57,2.57,0,0,1-2.25.19,1,1,0,0,1-.64-1.3,2.1,2.1,0,0,1,.52-.9C467.46,376.66,469.2,375.37,471,374.1Z"/><path class="cls-1" d="M459.84,387.31a3.07,3.07,0,0,1,1.28,0,1.22,1.22,0,0,1,1.14,1.22c-.09.21-.12.42-.24.51-2.35,1.8-5.18,2.14-8,2.62a1.09,1.09,0,0,1-.25,0,1.11,1.11,0,0,1-.75-1.67,3,3,0,0,1,1.33-1.13C456.18,388.22,458,387.77,459.84,387.31Z"/><path class="cls-1" d="M442.52,406q2.5-1,5.06-1.89a1.94,1.94,0,0,1,1,0,1.31,1.31,0,0,1,.6,1.94,3.59,3.59,0,0,1-.68.48c-1.4.66-2.8,1.3-4.22,1.91a12.71,12.71,0,0,1-1.73.5,1.11,1.11,0,0,1-1.37-.47,1.33,1.33,0,0,1,.34-1.69A3.34,3.34,0,0,1,442.52,406Z"/><path class="cls-1" d="M460.28,396.58a1.08,1.08,0,0,1,.74.62,1.1,1.1,0,0,1-.12,1,6.24,6.24,0,0,1-2.08,1.44c-1.71.53-3.49.83-5.24,1.21a3.86,3.86,0,0,1-.94-.07c-.07-.4-.31-.9-.17-1.18a3,3,0,0,1,1.15-1.35A15.52,15.52,0,0,1,460.28,396.58Z"/><path class="cls-1" d="M453.92,363.16a2.42,2.42,0,0,1,.42-.29,1,1,0,0,1,1.52.82,8.55,8.55,0,0,1-.08,1.21l-3.58,4.67a1.48,1.48,0,0,1-.43.29,1.82,1.82,0,0,1-2.1-.57,1.32,1.32,0,0,1,.24-1.7C451.23,366.09,452.58,364.63,453.92,363.16Z"/><path class="cls-1" d="M482.55,366a1.25,1.25,0,0,1,1.36,1,1.09,1.09,0,0,1-.74,1.25c-1.8.84-3.58,1.7-5.4,2.46a8,8,0,0,1-1.88.32c-.76-.81-.67-1.47-.08-2A13.77,13.77,0,0,1,482.55,366Z"/><path class="cls-1" d="M457.19,404.8c.31-.05.79.32,1,.63a1.08,1.08,0,0,1-.44,1.4,10.55,10.55,0,0,1-5.33,1.74A3.16,3.16,0,0,1,450,408a2.39,2.39,0,0,1,1.88-2.08A44.66,44.66,0,0,1,457.19,404.8Z"/><path class="cls-1" d="M288,148.3a30.21,30.21,0,0,1-6.74-2.59c-.16-.75-.31-1.49-.54-2.57,2.89.52,5.43.94,8,1.45,1.82.36,2,.84,1.48,2.76a1.21,1.21,0,0,1-1.07,1A3.06,3.06,0,0,1,288,148.3Z"/><path class="cls-1" d="M316,125.43c-2.76,0-2.76,0-5.06-2.5.4-.28.65-.59.94-.64.65-.09,1.34,0,2-.09a24.42,24.42,0,0,1,6.83,0c.41,0,.8.15.86.57a1.38,1.38,0,0,1-.24,1.06A5.06,5.06,0,0,1,318,125.4C317.29,125.42,316.62,125.43,316,125.43Z"/><path class="cls-1" d="M302.93,147.69a2.37,2.37,0,0,1-2.5-1.89c-.18-.56-.4-1.12-.6-1.7a3.66,3.66,0,0,1,3.26-.53c.8.14,1.58.4,2.39.53,1.85.3,1.85.29,2.19,2.22.07.38.19.74.31,1.23a2.49,2.49,0,0,1-2.65.51A7.86,7.86,0,0,0,302.93,147.69Z"/><path class="cls-1" d="M309.31,140.23a2.13,2.13,0,0,1-1-.33,1.36,1.36,0,0,1-.47-1c0-.31.35-.61.62-.84a1,1,0,0,1,.63-.12c1.63.06,3.26.12,4.89.24a1.88,1.88,0,0,1,1.2.51,2.45,2.45,0,0,0,1.79.84,6.66,6.66,0,0,1,1.32.24,1.78,1.78,0,0,1,.58.43.89.89,0,0,1-.55,1.22,5.72,5.72,0,0,1-3.72-.11A24.56,24.56,0,0,0,309.31,140.23Z"/><path class="cls-1" d="M276.82,123c-.44-1.28.55-2.68,1.76-2.37,1.81.46,3.59,1,5.38,1.62a1.16,1.16,0,0,1,.93,1.18,1.29,1.29,0,0,1-.79,1.26l-.42.14c-2.28.51-4.39-.23-6.44-1.29A1,1,0,0,1,276.82,123Z"/><path class="cls-1" d="M270.09,115.13a.8.8,0,0,1,.75-.95,37.39,37.39,0,0,1,7.47-.64c.26,0,.52.23.88.4-.07.43,0,.91-.21,1.12a3.8,3.8,0,0,1-1.43,1c-2.15.74-4.37.42-6.57,0A1.09,1.09,0,0,1,270.09,115.13Z"/><path class="cls-1" d="M277.39,128.51a2.09,2.09,0,0,1-.75-.51,1.38,1.38,0,0,1-.25-1.87A37,37,0,0,1,284.9,129a3.9,3.9,0,0,1-.29,1,1.41,1.41,0,0,1-1.77.52C281,129.89,279.2,129.2,277.39,128.51Z"/><path class="cls-1" d="M264.73,127.57a3.65,3.65,0,0,1-1.4-.71c-.5-.38-.56-.9-.08-1.65,1.37.13,2.7.18,4,.39a37.65,37.65,0,0,1,3.71.88.87.87,0,0,1,.75,1,1.1,1.1,0,0,1-.83,1,1.77,1.77,0,0,1-.65,0C268.41,128.2,266.56,127.93,264.73,127.57Z"/><path class="cls-1" d="M295.93,125.85c-1.2-.41-2.4-.87-3.58-1.35a5.82,5.82,0,0,1-1.18-.68,1,1,0,0,1-.41-1.23,12.84,12.84,0,0,1,.6-1.28,59.64,59.64,0,0,1,7.13,2.89c.11,1.52-.12,1.87-1.24,1.84A4.53,4.53,0,0,1,295.93,125.85Z"/><path class="cls-1" d="M290.78,117a1.75,1.75,0,0,1-.4-.22,1.22,1.22,0,0,1-.67-1.34,1,1,0,0,1,1.17-.79c1.17.14,2.34.31,3.5.51a8,8,0,0,1,3.07.89c-.05,2.09-.64,2.4-2.17,2.16A42.77,42.77,0,0,1,290.78,117Z"/><path class="cls-1" d="M303.92,120.58a2.08,2.08,0,0,1-1.41-1.41c-.07-.23-.14-.45-.22-.67-.16-.39-.21-.84.13-1a1.31,1.31,0,0,1,1-.1c1.62.57,3.22,1.21,4.82,1.83a4,4,0,0,1,1,.47,1.08,1.08,0,0,1,.42.74,1.12,1.12,0,0,1-.4.76,1.59,1.59,0,0,1-.82.26A10,10,0,0,1,303.92,120.58Z"/><path class="cls-1" d="M277.92,138.29a1.3,1.3,0,0,1-.8-.37,1.88,1.88,0,0,1-.41-1c0-.25.25-.51.32-.64.28-.12.41-.23.54-.23,1.77,0,3.54.07,5.31.15.74,0,1.17.64,1.62,1.17a.86.86,0,0,1-.24,1.2,1.7,1.7,0,0,1-.82.27C281.6,138.68,279.76,138.49,277.92,138.29Z"/><path class="cls-1" d="M292.28,136.29a2.9,2.9,0,0,1-.88-.72,1.06,1.06,0,0,1-.14-1.43c.17-.07.3-.19.43-.18,2.52.21,4.61,1.62,6.74,2.92a1.22,1.22,0,0,1,.15.17.92.92,0,0,1-.36,1.49,2.44,2.44,0,0,1-1.49,0C295.22,137.82,293.75,137.05,292.28,136.29Z"/><path class="cls-1" d="M313.66,134.4c-1.48-.54-2.94-1.11-4.4-1.71a1.94,1.94,0,0,1-.67-.61,1.07,1.07,0,0,1,.61-1.58,3,3,0,0,1,.7.08c1.29.39,2.58.79,3.85,1.22a11.65,11.65,0,0,1,1.43.68,1,1,0,0,1-.42,2A2.89,2.89,0,0,1,313.66,134.4Z"/><path class="cls-1" d="M296.79,130.15a1,1,0,0,1-.19-.83c.08-.24.39-.55.6-.54a5.49,5.49,0,0,1,2.15.27c1.43.65,2.79,1.48,4.17,2.26a3.83,3.83,0,0,1,.59.58c-.16.29-.25.75-.49.85a2.39,2.39,0,0,1-1.48.19A14.43,14.43,0,0,1,296.79,130.15Z"/><path class="cls-1" d="M283.76,155.05a1.61,1.61,0,0,1-.44-.05.9.9,0,0,1-.6-1.4,6,6,0,0,1,.68-.72l4.84-.91a1.16,1.16,0,0,1,.44.07,1.71,1.71,0,0,1,1.13,1.56c0,.46-.38.87-1.05,1C287.09,154.74,285.42,154.89,283.76,155.05Z"/><path class="cls-1" d="M265.89,136.75a1.12,1.12,0,0,1-.38-1.44.88.88,0,0,1,1.15-.37c1.65.51,3.3,1,4.92,1.55a7.13,7.13,0,0,1,1.44.89c.09.94-.31,1.31-1,1.32A12.52,12.52,0,0,1,265.89,136.75Z"/><path class="cls-1" d="M303.13,126.7a1.42,1.42,0,0,1-.37-1c0-.4.57-.74,1-.64a9.73,9.73,0,0,1,4.5,2,2.92,2.92,0,0,1,1.33,1.79,2,2,0,0,1-2.34.24A41.54,41.54,0,0,1,303.13,126.7Z"/><path class="cls-1" d="M151.45,501a34.33,34.33,0,0,1-.1,7.51l-2.16,1.22c-.49-3.05-1-5.74-1.35-8.43-.28-1.94.09-2.28,2-2.23a1.29,1.29,0,0,1,1.25.82A3.48,3.48,0,0,1,151.45,501Z"/><path class="cls-1" d="M121.24,478.67c.91,2.79.91,2.8-.58,5.79-.39-.33-.76-.5-.9-.79-.31-.63-.42-1.37-.74-2a29.23,29.23,0,0,1-2.27-6.92c-.1-.42-.12-.85.24-1a1.27,1.27,0,0,1,1,0,5.94,5.94,0,0,1,2.52,3C120.78,477.33,121,478,121.24,478.67Z"/><path class="cls-1" d="M145.89,486a2.42,2.42,0,0,1-.88,3c-.46.33-.9.7-1.36,1.06a4.33,4.33,0,0,1-1.56-3.16c-.14-.85-.18-1.71-.33-2.56-.34-2-.35-1.95,1.29-2.81.32-.17.62-.38,1-.63a3,3,0,0,1,1.36,2.54A9,9,0,0,0,145.89,486Z"/><path class="cls-1" d="M137,481.49a2.34,2.34,0,0,1,.05,1.14,1.18,1.18,0,0,1-.72.73c-.29.06-.68-.2-1-.4a1.21,1.21,0,0,1-.33-.61c-.49-1.67-1-3.34-1.41-5a2.06,2.06,0,0,1,.06-1.35,2.66,2.66,0,0,0,.17-2,6.72,6.72,0,0,1-.23-1.39,1.83,1.83,0,0,1,.2-.71.84.84,0,0,1,1.29.24,6.76,6.76,0,0,1,1.15,3.79A29.54,29.54,0,0,0,137,481.49Z"/><path class="cls-1" d="M132.16,518.92a1.73,1.73,0,0,1-2.75-1.15c-.19-1.95-.25-3.91-.33-5.87,0-.71.28-1.15.76-1.26a1.29,1.29,0,0,1,1.42.47c.09.13.18.25.26.39a10.81,10.81,0,0,1,1,6.86A1,1,0,0,1,132.16,518.92Z"/><path class="cls-1" d="M127.2,527.83c-.37.21-.82,0-1.11-.51a45.7,45.7,0,0,1-3.09-7.4,3.3,3.3,0,0,1,.07-1c.42,0,.84-.23,1.09-.08a4.29,4.29,0,0,1,1.36,1.18,15.89,15.89,0,0,1,2.25,6.65A1,1,0,0,1,127.2,527.83Z"/><path class="cls-1" d="M137,516.9a2.13,2.13,0,0,1-.22.89,1.18,1.18,0,0,1-1.62.74,41.72,41.72,0,0,1-.25-9.35,3.48,3.48,0,0,1,1,0,1.64,1.64,0,0,1,1.06,1.66C137,512.87,137,514.88,137,516.9Z"/><path class="cls-1" d="M140.34,530a3.81,3.81,0,0,1-.19,1.6c-.17.62-.63.81-1.47.52-.34-1.41-.74-2.78-1-4.17s-.32-2.65-.44-4c0-.49.11-.94.66-1a1.14,1.14,0,0,1,1.16.58,1.91,1.91,0,0,1,.25.65C139.68,526.07,140.05,528,140.34,530Z"/><path class="cls-1" d="M128.32,498.83c0,1.33,0,2.66,0,4a5.86,5.86,0,0,1-.23,1.37.92.92,0,0,1-1,.74,10.83,10.83,0,0,1-1.36-.27,63.44,63.44,0,0,1,.25-8c1.35-.51,1.75-.37,2.09.77A4.74,4.74,0,0,1,128.32,498.83Z"/><path class="cls-1" d="M122,506.4a1.4,1.4,0,0,1-.06.45c-.13.65-.5,1-1,1a1.18,1.18,0,0,1-1.11-1c-.26-1.22-.5-2.45-.7-3.68a8.77,8.77,0,0,1-.22-3.33c1.92-.51,2.4,0,2.69,1.61A44.36,44.36,0,0,1,122,506.4Z"/><path class="cls-1" d="M120.85,492.14a2,2,0,0,1-.82,1.8c-.17.14-.36.26-.53.41s-.69.43-1,.14a1.6,1.6,0,0,1-.43-1c0-1.79,0-3.58.06-5.36a4.44,4.44,0,0,1,.08-1.16,1,1,0,0,1,.54-.61,1,1,0,0,1,.82.19,1.86,1.86,0,0,1,.51.76A11.76,11.76,0,0,1,120.85,492.14Z"/><path class="cls-1" d="M145.69,513.77a1.34,1.34,0,0,1-.07.91,1.61,1.61,0,0,1-.78.68c-.22.09-.54-.11-.69-.15-.2-.25-.35-.35-.39-.49-.56-1.8-1.12-3.6-1.64-5.41a2.47,2.47,0,0,1,.52-1.95.76.76,0,0,1,1.17-.07,1.89,1.89,0,0,1,.52.75C144.81,509.94,145.26,511.86,145.69,513.77Z"/><path class="cls-1" d="M139.06,499.77a2.92,2.92,0,0,1-.35,1.08c-.29.49-.7.78-1.26.52-.13-.15-.28-.25-.31-.39-.65-2.6-.06-5.09.4-7.59a1.28,1.28,0,0,1,.11-.2.85.85,0,0,1,1.48,0,3,3,0,0,1,.45,1.52C139.48,496.38,139.27,498.08,139.06,499.77Z"/><path class="cls-1" d="M130.18,478.62c0,1.64,0,3.28-.08,4.91a1.9,1.9,0,0,1-.33.84,1,1,0,0,1-1.65-.2,3.36,3.36,0,0,1-.15-.73c-.08-1.41-.15-2.81-.18-4.22a12.65,12.65,0,0,1,.14-1.62c0-.51.25-.89.77-1s.92.25,1.16.88A3.38,3.38,0,0,1,130.18,478.62Z"/><path class="cls-1" d="M132,496.83a.85.85,0,0,1-.69.4.92.92,0,0,1-.7-.45,6.52,6.52,0,0,1-.47-2.25c.12-1.62.42-3.22.66-4.82a3.52,3.52,0,0,1,.33-.76c.32.09.77.06.94.28a3.08,3.08,0,0,1,.68,1.45A15.58,15.58,0,0,1,132,496.83Z"/><path class="cls-1" d="M159,503.43a3.12,3.12,0,0,1,.09.46.81.81,0,0,1-1.07,1,6,6,0,0,1-.89-.5c-.85-1.62-1.65-3.14-2.44-4.66a1.34,1.34,0,0,1-.09-.45,1.6,1.6,0,0,1,1-1.56c.41-.14.92.15,1.21.81C157.62,500.13,158.31,501.78,159,503.43Z"/><path class="cls-1" d="M148.32,526.35a1,1,0,0,1-1.19.77,1,1,0,0,1-.72-1.07c-.09-1.8-.21-3.59-.24-5.39a8,8,0,0,1,.33-1.69,1,1,0,0,1,1.54.66A14.17,14.17,0,0,1,148.32,526.35Z"/><path class="cls-1" d="M126.69,491.32c0,.27-.48.54-.79.64s-.86-.38-.92-.86a10.64,10.64,0,0,1,.29-5.08c.24-.64.35-1.37,1.18-1.82a2.31,2.31,0,0,1,1,2.3A46,46,0,0,1,126.69,491.32Z"/><path class="cls-1" d="M127.79,164.05a5.6,5.6,0,0,1-1.44,6.2c-.65.52-1.34,1-2.16,1.6,1.6,1.57.47,3.33.92,4.94-1.26,1.44-2.68,1.9-4.38,1a2.14,2.14,0,0,1-1-3c.4-.74.92-1.41,1.38-2.11-2.63-2.17-2.55-2.19-3.24-4.53a3.76,3.76,0,0,1,1.34-4.45,6,6,0,0,1,2.25-1.11,21.3,21.3,0,0,1,3.65-.45A2.71,2.71,0,0,1,127.79,164.05Z"/><path class="cls-1" d="M134.8,184a3.75,3.75,0,0,0-1.38.24,9.66,9.66,0,0,0-5.18,5.09,3,3,0,0,0,1.94,4.26,5.79,5.79,0,0,0,3.36.12,6.12,6.12,0,0,0,3.83-7.77A2.39,2.39,0,0,0,134.8,184Zm.47,2.87c.06.05.14.08.17.14a.64.64,0,0,1,0,.24c-.06,0-.14-.08-.17-.14A.64.64,0,0,1,135.27,186.89Z"/><path class="cls-1" d="M169.15,177.71a4.55,4.55,0,0,1-.34,5,5.58,5.58,0,0,1-7.46,1.23,2.92,2.92,0,0,1-1.12-4.32,9.11,9.11,0,0,1,4.22-3.56A4.21,4.21,0,0,1,169.15,177.71Z"/><path class="cls-1" d="M154.9,185.19a3.89,3.89,0,0,1,.52,4,7.75,7.75,0,0,1-4.49,4.3,7.38,7.38,0,0,1-1.64.21,3.42,3.42,0,0,1-3.22-3.56c.43-3.34,4.29-6.45,7.41-5.9A2.55,2.55,0,0,1,154.9,185.19Z"/><path class="cls-1" d="M149.22,158.25a35.83,35.83,0,0,1-.28,4.14,1.64,1.64,0,0,1-.53,1,31.4,31.4,0,0,1-3.13,2.41A2.28,2.28,0,0,1,142,165c-.52-.73-1-1.49-1.46-2.26-.85-1.44-.86-2.64.25-3.82a26.7,26.7,0,0,1,3.13-2.52c1.55.24,3.05.41,4.52.75A1.47,1.47,0,0,1,149.22,158.25Z"/><path class="cls-1" d="M160.29,164.24c.91,1.29,1.76,2.71,1.14,4.42-.68,1.87-1.78,3.27-3.84,3.32a10,10,0,0,1-2.81-.38,2.51,2.51,0,0,1-1.76-2.75,5.54,5.54,0,0,1,4.28-5.3A2.33,2.33,0,0,1,160.29,164.24Z"/><path class="cls-1" d="M144.66,199.21c.12.69.18,1.4.24,2.1.15,2-.51,3-2.54,3.58a13.37,13.37,0,0,1-4.53-.25,2.4,2.4,0,0,1-1.53-3.35,11.54,11.54,0,0,1,4.08-4.38C142.32,195.82,144.25,196.86,144.66,199.21Z"/><path class="cls-1" d="M142.16,175.77a19.24,19.24,0,0,1-.36,2.36,2.88,2.88,0,0,1-1.48,2,4.49,4.49,0,0,1-4.12.29,3.27,3.27,0,0,1-1.83-4.66,6.4,6.4,0,0,1,3-3C140.51,171.82,142.22,173.2,142.16,175.77Z"/><path class="cls-1" d="M149.58,171.54a3.92,3.92,0,0,1-2.76,4.58,4.2,4.2,0,0,1-1.22,0,2.47,2.47,0,0,1-1.76-3.21,4.59,4.59,0,0,1,4.33-2.69A1.62,1.62,0,0,1,149.58,171.54Z"/><path class="cls-1" d="M306.17,507.93a5.59,5.59,0,0,1-5.79,2.63c-.82-.19-1.61-.45-2.59-.73-.27,2.22-2.35,2.4-3.35,3.74-1.91-.12-3.14-1-3.49-2.85a2.15,2.15,0,0,1,1.8-2.63,23.57,23.57,0,0,1,2.51-.2c.11-3.41.18-3.36,1.62-5.33a3.75,3.75,0,0,1,4.34-1.65,6.18,6.18,0,0,1,2.26,1.1,21.3,21.3,0,0,1,2.57,2.63A2.69,2.69,0,0,1,306.17,507.93Z"/><path class="cls-1" d="M294.62,525.66a3.61,3.61,0,0,0-1-.95,9.6,9.6,0,0,0-7.19-1,3,3,0,0,0-2.19,4.13,5.81,5.81,0,0,0,1.95,2.74,6.14,6.14,0,0,0,8.49-1.7A2.4,2.4,0,0,0,294.62,525.66Zm-2,2.12c0,.08,0,.16,0,.22s-.12.11-.18.16,0-.16,0-.22S292.57,527.83,292.63,527.78Z"/><path class="cls-1" d="M320.56,549a4.5,4.5,0,0,1-4.18,2.79,5.58,5.58,0,0,1-5.53-5.15,2.91,2.91,0,0,1,2.75-3.52,9,9,0,0,1,5.39,1.17A4.17,4.17,0,0,1,320.56,549Z"/><path class="cls-1" d="M305.94,542.3a3.87,3.87,0,0,1-2.84,2.84,7.76,7.76,0,0,1-6.14-.93A7.49,7.49,0,0,1,295.8,543a3.41,3.41,0,0,1,.85-4.72c2.92-1.7,7.73-.55,9.2,2.27A2.5,2.5,0,0,1,305.94,542.3Z"/><path class="cls-1" d="M323.84,521.37a37.85,37.85,0,0,1-3.46,2.31,1.69,1.69,0,0,1-1.12.19,35.16,35.16,0,0,1-3.82-1,2.29,2.29,0,0,1-1.32-3.1c.26-.85.56-1.7.89-2.53.63-1.55,1.58-2.29,3.18-2.13a27.7,27.7,0,0,1,3.91.94c.76,1.38,1.54,2.67,2.17,4A1.51,1.51,0,0,1,323.84,521.37Z"/><path class="cls-1" d="M325.84,533.8c-.48,1.51-1.08,3-2.82,3.6s-3.67.59-5-1a10.34,10.34,0,0,1-1.41-2.46,2.5,2.5,0,0,1,1.11-3.07,5.53,5.53,0,0,1,6.81.16A2.33,2.33,0,0,1,325.84,533.8Z"/><path class="cls-1" d="M288.59,542.74c-.48.52-1,1-1.52,1.46-1.49,1.35-2.7,1.44-4.39.18a13.38,13.38,0,0,1-2.56-3.75,2.38,2.38,0,0,1,1.72-3.24,11.58,11.58,0,0,1,6,.55C289.85,538.81,290.2,541,288.59,542.74Z"/><path class="cls-1" d="M305.64,526.46a16.3,16.3,0,0,1-2.09,1.15,2.84,2.84,0,0,1-2.51.07,4.49,4.49,0,0,1-2.75-3.09,3.28,3.28,0,0,1,2.58-4.29,6.44,6.44,0,0,1,4.26.56C307.77,522.74,307.72,525,305.64,526.46Z"/><path class="cls-1" d="M313.52,529.77a3.93,3.93,0,0,1-5.32.6,4.85,4.85,0,0,1-.76-1,2.46,2.46,0,0,1,1.47-3.35,4.59,4.59,0,0,1,4.77,1.79A1.63,1.63,0,0,1,313.52,529.77Z"/><path class="cls-1" d="M18.29,333.41a10.75,10.75,0,0,0-5.07,4,3.91,3.91,0,0,0-.83,2,53.52,53.52,0,0,0,.07,6.08c.1,1.24.91,1.65,2.2,1.48,3-.39,3.78-.73,7-3.35a13.19,13.19,0,0,0-1.39,7.24,2.5,2.5,0,0,0,2.31,2.48,13,13,0,0,0,3.74-.14A5.21,5.21,0,0,0,29,351.67c2.35-2.93,3.53-6.24,2.62-9.84-.78-3.09-2.05-3.69-5-2.53-1,.37-1.88.89-3.28,1.56a5.35,5.35,0,0,0,.23-5.21C22.64,333.41,20.66,332.61,18.29,333.41ZM28,343c.2-.07.43-.22.6-.18s.29.28.43.43a2.23,2.23,0,0,1-.75.23C28.21,343.45,28.14,343.14,28,343Z"/><path class="cls-1" d="M67.28,357.55a5.91,5.91,0,0,1,3.81,6.19c-.12,1.06-.3,2.12-.48,3.41,2.57-.41,3.06,2.06,4.72,2.84.14,2.37-.66,4.14-2.76,5.19a2.12,2.12,0,0,1-3.25-1.31c-.28-1-.39-2-.58-3-3.9,1-3.85.89-6.3-.2-2-.9-2.77-2.51-2.48-4.75a9.1,9.1,0,0,1,.95-3.12,32.54,32.54,0,0,1,2.63-4A3.23,3.23,0,0,1,67.28,357.55Z"/><path class="cls-1" d="M45.48,319.64c2.67.39,3.63,2.4,3.87,4.91.38,4-1.23,7-4.69,9.21-1.81,1.15-3.52,1.27-5.14.1a4.69,4.69,0,0,1-2-4.84,12.77,12.77,0,0,1,2.89-6.31,16.79,16.79,0,0,1,4.18-3.36A3.79,3.79,0,0,0,45.48,319.64Z"/><polygon class="cls-1" points="44.68 319.31 44.62 319.35 44.53 319.32 44.68 319.31"/><path class="cls-1" d="M52.67,369.67a17.1,17.1,0,0,0,1.15,3.57,2.25,2.25,0,0,1-.18,1.71,13.35,13.35,0,0,1-1.15,1.89c-2.1,2.21-3.94,3.22-6.12,2.83a11.72,11.72,0,0,1-3.15-1c-2.09-1.05-2.72-2.91-1.75-5.31a11.46,11.46,0,0,1,4.45-5.68C48.34,366.14,51.79,367.06,52.67,369.67Z"/><path class="cls-1" d="M70.92,341.45c.1.21.21.41.3.62,1.16,2.87.59,5.88-2,8.48a18.59,18.59,0,0,1-2.87,1.65,4.46,4.46,0,0,1-6-6,24.2,24.2,0,0,1,2.32-4.6C65.18,337.81,69,337.8,70.92,341.45Z"/><path class="cls-1" d="M20.54,357.55c1.57,1.52,2.69,3.46,2.13,5.89a24.51,24.51,0,0,1-2.29,5.79,6.22,6.22,0,0,1-6.4,2.62,3.42,3.42,0,0,1-1.11-.7c-1.78-1.56-2-4.2-.49-6.8,1-1.68,2.25-3.2,3-4.32,1.15-1.09,1.81-1.83,2.57-2.4A1.9,1.9,0,0,1,20.54,357.55Z"/><path class="cls-1" d="M19.78,391.73a2,2,0,0,1,2.23.33c2.12,1.61,2.9,5.5,1.56,8.07a23.89,23.89,0,0,1-1.93,2.71,5.26,5.26,0,0,1-3.39,1.89c-3.55.59-4.4-.09-5.06-3.68a6.3,6.3,0,0,1,2.09-6.27A29.67,29.67,0,0,1,19.78,391.73Z"/><path class="cls-1" d="M31.86,405.09c-.38.3-.73.64-1.61,1.44a34.37,34.37,0,0,0-2.11,3.91c-.84,2.05.18,4.37,2.17,4.62a26.25,26.25,0,0,0,3.63.53,5.69,5.69,0,0,0,5.37-4.52,9.17,9.17,0,0,0,.25-3.2C39.09,403.89,35.08,402.47,31.86,405.09ZM37,410.18l.27.33-.45.43c-.06-.07-.17-.16-.15-.2A4.56,4.56,0,0,1,37,410.18Z"/><path class="cls-1" d="M24.27,373.24a2.61,2.61,0,0,1,2.6,1c2,2.2,1.63,5.54,0,8-1.74,2.65-4.62,4.07-7.13,3.34a3.37,3.37,0,0,1-2.48-2.89c-.5-2.91,1.61-7.23,4.33-8.63A8.38,8.38,0,0,1,24.27,373.24Z"/><path class="cls-1" d="M77.84,390.23a8.16,8.16,0,0,1-7.78,8.66,2.31,2.31,0,0,1-2.64-2.4,19.6,19.6,0,0,1,.29-4.65A14.75,14.75,0,0,1,69,388.77c1.66-1.67,3.48-2.71,4.44-2.75A4.34,4.34,0,0,1,77.84,390.23Z"/><path class="cls-1" d="M85.87,365.93a5.38,5.38,0,0,0-1.4,1.15,14.14,14.14,0,0,0-3.35,8.72c0,2.54,1.63,3.79,4,3.23a8,8,0,0,0,3.71-2c3-3,3.3-7.83.7-10.67A2.57,2.57,0,0,0,85.87,365.93Zm1.79,2.72a.62.62,0,0,1,.25,0,.83.83,0,0,1,.12.25c-.08,0-.19,0-.25-.05S87.7,368.73,87.66,368.65Z"/><path class="cls-1" d="M60.24,324.38A2.09,2.09,0,0,1,62.13,326c.92,2.67-.06,7-2.27,9.35-.39.3-.93.81-1.53,1.2-2.85,1.81-5.65.26-5.63-3.13a15.12,15.12,0,0,1,1.83-6.65,4.11,4.11,0,0,1,3.34-2.43A12.51,12.51,0,0,1,60.24,324.38Z"/><path class="cls-1" d="M109.08,346.76c1.63.87,2.46,3.32,1.87,5.51a8,8,0,0,1-7.56,6.14c-2.31,0-3.48-1.37-3.14-3.83a13.62,13.62,0,0,1,3-6.49A5.09,5.09,0,0,1,109.08,346.76Z"/><path class="cls-1" d="M38.3,345.79a4.86,4.86,0,0,1,3.56,4.41A10.81,10.81,0,0,1,38.44,358c-1.63,1.51-3,1.45-4.51,0-2.5-2.47-2.21-7.75.67-10.83C35.64,346.27,36.81,345.48,38.3,345.79Z"/><path class="cls-1" d="M105.81,362.5a3.91,3.91,0,0,1,2.35,3.86,11.43,11.43,0,0,1-3,7.44,11.91,11.91,0,0,1-1.7,1.28c-2.07,1.12-4.57.27-5.09-1.66-1-3.81,1.77-9.58,5.43-11A2.71,2.71,0,0,1,105.81,362.5Z"/><path class="cls-1" d="M90,329.41A40.58,40.58,0,0,1,91.59,334a2.26,2.26,0,0,1-.13,1.4,50.29,50.29,0,0,1-2.33,4.57,2.85,2.85,0,0,1-3.92,1.23,28.53,28.53,0,0,1-2.6-1.43,3.14,3.14,0,0,1-1.44-4.19,42.84,42.84,0,0,1,2.28-4.69c1.8-.75,3.51-1.54,5.26-2.14A1.41,1.41,0,0,1,90,329.41Z"/><path class="cls-1" d="M51.16,345.14c.58.31,1.11.7,1.45.92a4.74,4.74,0,0,1,1.49,4,28.58,28.58,0,0,1-.38,2.89A6.2,6.2,0,0,1,48,358.1a3.1,3.1,0,0,1-3.26-2.78c-.58-3.59,1-6.59,3.23-9.37a3.19,3.19,0,0,1,.57-.46A2.31,2.31,0,0,1,51.16,345.14Z"/><path class="cls-1" d="M59.35,411.53a7.4,7.4,0,0,1-1.75,7.36A5.18,5.18,0,0,1,51,420.17,4.28,4.28,0,0,1,49.37,415a23.83,23.83,0,0,1,1.67-3c1.11-.81,2-1.49,2.86-2.09C56.29,408.38,58.36,409,59.35,411.53Z"/><path class="cls-1" d="M37.71,390.38c.56,3,.3,5.08-3,7.53-2.39,1.76-3.81,1.69-5.76-.2-2.36-2.29-2.26-4.77.89-8a20.87,20.87,0,0,1,3.32-1.86C35.46,387,37.26,388,37.71,390.38Z"/><path class="cls-1" d="M9.51,376.08c0,1.06-.22,2.18-.09,3.22.22,1.75-.69,2.75-2,3.57a6.42,6.42,0,0,1-5,.92c-2.05-.49-2.85-2-2.22-4.26a12.58,12.58,0,0,1,6-7.74C8.76,372.14,9.42,373.9,9.51,376.08Z"/><path class="cls-1" d="M88.49,312.14c.78.06,1.58,0,2.36,0a2.49,2.49,0,0,1,2.4,2c.71,2.22-.2,5.38-2.54,7.72a5.83,5.83,0,0,1-3,1.37,2.73,2.73,0,0,1-3.24-1.71,8.36,8.36,0,0,1,1-7.83A3.36,3.36,0,0,1,88.49,312.14Z"/><path class="cls-1" d="M78.64,405.9a34,34,0,0,1,.79,4.07,2,2,0,0,1-.47,1.34A17.4,17.4,0,0,1,76,414a6.05,6.05,0,0,1-4.32,1.07c-2.25-.37-3.28-2.14-2.27-4.39.84-1.89,2-3.66,2.81-5.12.88-.64,1.34-1,1.86-1.35C76.24,403,78,403.61,78.64,405.9Z"/><path class="cls-1" d="M104.76,328.55c1.57.78,3.12,1.72,3.22,3.93.1,2.4-.47,4.59-2.7,6a13.56,13.56,0,0,1-3.22,1.42,2.46,2.46,0,0,1-3.15-1.76c-1-2.89-.25-5.79,2.29-8.36C102.14,328.69,103.38,327.86,104.76,328.55Z"/><path class="cls-1" d="M33.3,316.42a1.54,1.54,0,0,1,2.35.5c1.55,2.4.78,5.25.67,8,0,.1-.12.21-.18.32-1.39,2.51-3.25,3.54-5.83,3.25-2.16-.25-3.11-1.54-2.73-3.88a11.35,11.35,0,0,1,3.56-6.52c.13-.12.67-.62,1.24-1.08A4.52,4.52,0,0,1,33.3,316.42Z"/><path class="cls-1" d="M97,384.08a21.88,21.88,0,0,1,1.19,2.05c1.06,2,.79,3.51-1.16,5.42a18.69,18.69,0,0,1-5,2.68,2.39,2.39,0,0,1-3.16-2.54,16.9,16.9,0,0,1,2.48-7.27C93,382,95.52,381.87,97,384.08Z"/><path class="cls-1" d="M60.64,386.32A3,3,0,0,1,61.87,389a14.69,14.69,0,0,1-1.61,6,4.73,4.73,0,0,1-6,2.28,2.52,2.52,0,0,1-1.59-2.06,9.48,9.48,0,0,1,2.19-7.14c.79-.63,1.52-1.29,2.32-1.84A2.63,2.63,0,0,1,60.64,386.32Z"/><path class="cls-1" d="M11.28,351.6c1.23.41,2.19,2.6,2,4.41a4.22,4.22,0,0,1-.2,1.07,13.07,13.07,0,0,1-2.59,4.42,5.34,5.34,0,0,1-4.8,1.55,2.37,2.37,0,0,1-2-2A4.88,4.88,0,0,1,4,357.56c.69-1.29,1.5-2.52,1.94-3.27.69-.71.93-1,1.21-1.23C8.42,352,9.7,351.06,11.28,351.6Z"/><path class="cls-1" d="M59.36,304a5.77,5.77,0,0,1,1.84,4.67,9.84,9.84,0,0,1-4.5,6.91,2.08,2.08,0,0,1-1.59,0c-.39-.13-.63-.62-.88-.9a7.45,7.45,0,0,1,.4-9.86C55.8,303.47,58.4,302.89,59.36,304Z"/><path class="cls-1" d="M50.26,400.19a5.09,5.09,0,0,1,.58,3.74,10.41,10.41,0,0,1-4.11,6.32c-2.19,1.54-4,.91-4.64-1.6a6.19,6.19,0,0,1,0-2.46,14.1,14.1,0,0,1,3.11-5.87c.22-.21.48-.47.76-.71C47.67,398.18,49.3,398.42,50.26,400.19Z"/><path class="cls-1" d="M90.18,352.46a20,20,0,0,1,.67,2.72,3.94,3.94,0,0,1-.71,3.1,6.38,6.38,0,0,1-4.35,3,3.26,3.26,0,0,1-4.06-3.73,9.4,9.4,0,0,1,1.94-5.16C86.63,349.36,89.11,349.71,90.18,352.46Z"/><polygon class="cls-1" points="44.53 319.32 44.59 319.3 44.69 319.31 44.53 319.32"/><path class="cls-1" d="M47.68,308c.62.94,1,2.09,1.58,3,1.24,1.86.53,3.59-.66,5.31a8.81,8.81,0,0,1-4,2.94c-2.47-.36-3.58-2.09-3.46-4.59a9.18,9.18,0,0,1,4.14-7.06A1.61,1.61,0,0,1,47.68,308Z"/><path class="cls-1" d="M90,398c2.49,1.4,2.9,5.47.72,8.08-1.76,2.11-4.29,2.37-6.16.46-1.64-1.44-1.45-3.63-.73-5.78C85.31,396.32,87,396.39,90,398Z"/><path class="cls-1" d="M76.07,308.62c.55,2.27-.4,4-1.6,5.58a7.06,7.06,0,0,1-3.91,2.35,1.74,1.74,0,0,1-2.2-1,7.53,7.53,0,0,1,0-5.23c.54-1.8,1.37-3.41,3.45-4.14Z"/><path class="cls-1" d="M76.62,326.49a5.24,5.24,0,0,1-4.89,3c-1.11,0-1.61-1-1.69-3.34a8.93,8.93,0,0,1,0-1.79c.48-2.58,1.22-5,4.13-6.23C77.32,320.45,78,323,76.62,326.49Z"/><path class="cls-1" d="M96.37,343.19a5.19,5.19,0,0,1-1,6.62,6,6,0,0,1-1.31.82,2.45,2.45,0,0,1-3.35-2.25,6.91,6.91,0,0,1,3.51-5.63A1.65,1.65,0,0,1,96.37,343.19Z"/><path class="cls-1" d="M35.13,363.12c1.32.36,1.6.94,1.58,2.59a6.75,6.75,0,0,1-2,4.62c-1,1.06-2,1.45-2.79,1.08a2.71,2.71,0,0,1-1.37-2.59,7.58,7.58,0,0,1,1.55-4.45A2.45,2.45,0,0,1,35.13,363.12Z"/><path class="cls-1" d="M579.4,388.4a1.17,1.17,0,0,1-1.17.85,2.67,2.67,0,0,1-1.09-.15,31.27,31.27,0,0,1-6.5-3.34c-.08-.77-.16-1.53-.27-2.63,2.84.85,5.34,1.56,7.83,2.35C580,386.06,580.15,386.55,579.4,388.4Z"/><path class="cls-1" d="M575.8,362.73a1.2,1.2,0,0,1,.81,1.29,1.26,1.26,0,0,1-.93,1.16c-.14,0-.28.07-.43.09-2.34.25-4.38-.73-6.33-2a1,1,0,0,1-.36-.58c-.32-1.33.83-2.61,2-2.16C572.33,361.18,574.06,362,575.8,362.73Z"/><path class="cls-1" d="M571,353.39c.26,0,.5.28.84.49-.12.42-.11.91-.33,1.09a3.72,3.72,0,0,1-1.53.81c-2.23.48-4.42-.09-6.6-.71a1.1,1.1,0,0,1-.79-1c0-.46.26-.82.85-.86A37.52,37.52,0,0,1,571,353.39Z"/><path class="cls-1" d="M576.05,369.51a3.65,3.65,0,0,1-.39,1,1.42,1.42,0,0,1-1.83.31c-1.78-.82-3.52-1.72-5.27-2.61a2.35,2.35,0,0,1-.7-.6,1.37,1.37,0,0,1-.05-1.89A38.45,38.45,0,0,1,576.05,369.51Z"/><path class="cls-1" d="M562.34,365.43a.88.88,0,0,1,.65,1.08,1.08,1.08,0,0,1-.93.87,1.48,1.48,0,0,1-.66,0c-1.82-.49-3.64-1-5.45-1.54a3.87,3.87,0,0,1-1.33-.87c-.47-.43-.47-1,.09-1.65,1.36.28,2.69.49,4,.85A38.58,38.58,0,0,1,562.34,365.43Z"/><path class="cls-1" d="M573.28,376.46c.74.12,1.11.78,1.51,1.36a.85.85,0,0,1-.37,1.16,1.73,1.73,0,0,1-.85.17q-2.75-.54-5.48-1.16a1.39,1.39,0,0,1-.77-.46,2,2,0,0,1-.31-1c0-.26.3-.48.39-.61a2.13,2.13,0,0,1,.57-.17C569.74,375.94,571.51,376.18,573.28,376.46Z"/><path class="cls-1" d="M581.62,376.16l.14.44A1.6,1.6,0,0,1,581.62,376.16Z"/><path class="cls-1" d="M577.46,392.9a1.78,1.78,0,0,1,1,1.7c0,.45-.47.81-1.16.81-1.69,0-3.38,0-5.07-.07a1.67,1.67,0,0,1-.43-.1.9.9,0,0,1-.46-1.46,6.46,6.46,0,0,1,.76-.64l4.95-.35A1.14,1.14,0,0,1,577.46,392.9Z"/><path class="cls-1" d="M561.91,375.47a7.54,7.54,0,0,1,1.35,1c0,1-.45,1.28-1.13,1.21a12.88,12.88,0,0,1-6-2.64,1.13,1.13,0,0,1-.23-1.48.86.86,0,0,1,1.19-.23C558.73,374.05,560.34,374.72,561.91,375.47Z"/><path class="cls-1" d="M350.69,443.86c0,.65,0,1.4-.14,2.13a1.34,1.34,0,0,1-1.28,1.22,1.52,1.52,0,0,1-1.65-.81,18.63,18.63,0,0,1-1-3.25.93.93,0,0,1,1.37-1C348.82,442.61,349.65,443.19,350.69,443.86Z"/><path class="cls-1" d="M305.8,450.65c0,1-1.23,1.76-1.94,1.26a3.8,3.8,0,0,1-1.7-2.79,1.23,1.23,0,0,1,.41-.94,11.88,11.88,0,0,1,1.66-.91A3.43,3.43,0,0,1,305.8,450.65Z"/><path class="cls-1" d="M364.45,414.48c.06.51.12.79.12,1.06a1.9,1.9,0,0,1-1.58,1.94c-.68.19-1.39-.34-1.88-1.34a7.82,7.82,0,0,1-.48-1.33c-.22-.84.39-1.56,1.16-1.32S363.47,414.11,364.45,414.48Z"/><path class="cls-1" d="M340.6,400.26c-.11.44-.27,1.26-.52,2.05a1,1,0,0,1-1.57.46,4.78,4.78,0,0,1-1.07-1.26,1.54,1.54,0,0,1,.51-2.19,4.89,4.89,0,0,1,1.45-.62C340.05,398.54,340.63,399.15,340.6,400.26Z"/><path class="cls-1" d="M349.58,404.91a2.24,2.24,0,0,1,.4,2.63c-.27.78-1,1.37-1.59,1.21a2,2,0,0,1-1.12-.71,11.22,11.22,0,0,1-.81-2,12.3,12.3,0,0,1,1.15-1.11A1.48,1.48,0,0,1,349.58,404.91Z"/><path class="cls-1" d="M329.15,404a1.84,1.84,0,0,1-1.54,1.7,1.71,1.71,0,0,1-1.74-1.17,3.58,3.58,0,0,1-.54-1.31,5.09,5.09,0,0,1,.44-1.55l3.11,1A4.27,4.27,0,0,1,329.15,404Z"/><path class="cls-1" d="M298,434.22a1.33,1.33,0,0,1-.56,1.46c-.43.39-1.05.61-1.47.2a9.07,9.07,0,0,1-1.63-2.24c-.35-.7.61-1.79,1.51-1.6A3.26,3.26,0,0,1,298,434.22Z"/><path class="cls-1" d="M339.79,430l1.61,2.26c-.73,1.7-.73,1.7-3,.94-.18-.74-.43-1.56-.56-2.39a1.11,1.11,0,0,1,.77-1.31A1,1,0,0,1,339.79,430Z"/><path class="cls-1" d="M349.79,457.56a15,15,0,0,1,1.46,1.62c-.54.83-.91,1.46-1.35,2a.86.86,0,0,1-1.4-.09,10,10,0,0,1-.9-2,1.18,1.18,0,0,1,.42-1.48A1.5,1.5,0,0,1,349.79,457.56Z"/><path class="cls-1" d="M333.6,394.47a2.31,2.31,0,0,1,.8,2,1.71,1.71,0,0,1-1.95,1.12,2.07,2.07,0,0,1-1.78-2c.07-.14.12-.47.3-.62a9.59,9.59,0,0,1,1.15-.71A1.07,1.07,0,0,1,333.6,394.47Z"/><path class="cls-1" d="M318.54,412.2A5.11,5.11,0,0,1,318,414a1.1,1.1,0,0,1-.87.47c-.9,0-2-1.5-1.85-2.46a2.21,2.21,0,0,1,1.86-1.69A1.87,1.87,0,0,1,318.54,412.2Z"/><path class="cls-1" d="M291.72,415.49c-.08.87-1.19,2.05-1.9,2s-1.62-1.36-1.53-2.4a2.26,2.26,0,0,1,1.85-1.69A2.16,2.16,0,0,1,291.72,415.49Z"/><path class="cls-1" d="M313.51,399.52a4.07,4.07,0,0,1,.18,1.12c-.07,1.46-.78,2.16-1.67,1.9a1.82,1.82,0,0,1-1.09-2.68c.19-.31.47-.56.66-.87s.66-.74,1.1-.5A2.12,2.12,0,0,1,313.51,399.52Z"/><path class="cls-1" d="M325,454.29a11.46,11.46,0,0,1-.43,2,1.16,1.16,0,0,1-2,.35,5.29,5.29,0,0,1-.82-1.16,1.36,1.36,0,0,1,.59-1.9C323.26,452.94,324,453.49,325,454.29Z"/><path class="cls-1" d="M335.54,421.67a5,5,0,0,1,0,.72,5.25,5.25,0,0,1-.25.93c-.23.52-.55,1-1.16,1a1.5,1.5,0,0,1-1.31-1.25,5,5,0,0,1,0-1.92,1.61,1.61,0,0,1,1.68-1.08C335.26,420.33,335.39,421,335.54,421.67Z"/><path class="cls-1" d="M358.86,422c-.28,1.26-1,2-1.65,1.81-.16-.09-.4-.14-.46-.27a12,12,0,0,1-.84-2.35c-.06-.3.36-.87.69-1a3.14,3.14,0,0,1,1.56-.07C358.79,420.19,359.08,421.05,358.86,422Z"/><path class="cls-1" d="M365.68,446.74a1.66,1.66,0,0,1,1.51,1.71,1.59,1.59,0,0,1-1.33,1.8c-.78,0-1.41-.5-1.75-1.51-.06-.18-.11-.37-.16-.56-.28-1.12.15-1.67,1.19-1.55Z"/><path class="cls-1" d="M349.49,427.14a4.59,4.59,0,0,1-.49,1.56,1.2,1.2,0,0,1-.86.53c-.94.06-2.11-1.36-2-2.49.15-.16.34-.58.63-.66a5.24,5.24,0,0,1,1.81-.17A1.06,1.06,0,0,1,349.49,427.14Z"/><path class="cls-1" d="M308.33,442.72a9.86,9.86,0,0,1-1.25,1,1.24,1.24,0,0,1-1.7-.36,1.37,1.37,0,0,1-.16-1.81,10.8,10.8,0,0,1,1-1.19C307.82,441,307.82,441,308.33,442.72Z"/><path class="cls-1" d="M343.05,416.61a5.54,5.54,0,0,1-.07.57c-.13.59-.42,1-1.05,1.09s-1.48-.62-1.88-1.82a1.26,1.26,0,0,1,.47-1.49,1,1,0,0,1,.23-.13C342.12,414.3,343.13,415.09,343.05,416.61Z"/><path class="cls-1" d="M291.53,401.64a3.16,3.16,0,0,1,.3,3.21,6.63,6.63,0,0,0-.73-.69c-.29-.21-.61-.36-.91-.54s-.73-.31-.89-.59a3.2,3.2,0,0,1-.46-1.54c0-.49,1-.85,1.59-.61A2.15,2.15,0,0,1,291.53,401.64Z"/><path class="cls-1" d="M315.23,384.72c.58,1-.2,2.61-1.19,2.56a1.68,1.68,0,0,1-1.61-1.32c-.15-.93.41-2.22,1.05-2.37a.73.73,0,0,1,.53,0A4.42,4.42,0,0,1,315.23,384.72Z"/><path class="cls-1" d="M357.29,403.56a2,2,0,0,1-.49,2.71c-.74.51-1.55.11-2.09-1.06l-.12-.26c-.49-1.2.05-2,1.58-2A2.9,2.9,0,0,1,357.29,403.56Z"/><path class="cls-1" d="M351.88,417c-.07,1.14-.95,2.18-1.74,2.07a2.21,2.21,0,0,1-1.51-2.09c.09-.75,1.51-1.53,2.36-1.29A1.48,1.48,0,0,1,351.88,417Z"/><path class="cls-1" d="M339.32,445.78a1.48,1.48,0,0,1-.18,2,1.13,1.13,0,0,1-1.7,0,2.72,2.72,0,0,1-.9-2.15,2.68,2.68,0,0,1,.8-.51,1.86,1.86,0,0,1,1,.07A2.64,2.64,0,0,1,339.32,445.78Z"/><path class="cls-1" d="M322.05,391.85a1.62,1.62,0,0,1,.48,1.21,1.41,1.41,0,0,1-.76,1,1.67,1.67,0,0,1-2.36-1.19c-.36-1,.14-1.73,1.42-1.56A3.7,3.7,0,0,1,322.05,391.85Z"/><path class="cls-1" d="M333.54,383.34c.53,1,.1,1.79-.64,2.62A13.93,13.93,0,0,1,331,385a1,1,0,0,1,.09-1.8C332.35,382.68,333.2,382.69,333.54,383.34Z"/><path class="cls-1" d="M360.22,437.61a1.42,1.42,0,0,1-1.06.64,1.69,1.69,0,0,1-1.05-.73,2.05,2.05,0,0,1-.2-2.14c.17-.35.62-.54.82-.71A2.18,2.18,0,0,1,360.22,437.61Z"/><path class="cls-1" d="M334,453.57a1.53,1.53,0,0,1-.34,2.7,1,1,0,0,1-.78,0,2.82,2.82,0,0,1-1.28-2.66.93.93,0,0,1,1.22-.75A4.87,4.87,0,0,1,334,453.57Z"/><path class="cls-1" d="M303,429.65a1.24,1.24,0,0,1-1.83.48,1.53,1.53,0,0,1-.33-2.37c.29-.35.53-.74.87-1.21C303.52,428.1,303.67,428.6,303,429.65Z"/><path class="cls-1" d="M334.16,436.19a4.38,4.38,0,0,1,.67,3.8.82.82,0,0,1-.62.45.85.85,0,0,1-.67-.39,24,24,0,0,1-.74-3.34c0-.27.49-.61.73-.88C333.86,436,334.07,436.06,334.16,436.19Z"/><path class="cls-1" d="M339.88,389.48a1.69,1.69,0,0,1,.48,1.79,1.43,1.43,0,0,1-1.86.59c-.67-.34-.79-1-.94-1.66s.31-1.28,1.29-1.16A5.36,5.36,0,0,1,339.88,389.48Z"/><path class="cls-1" d="M306.77,403.16a1.45,1.45,0,0,1,.67,1.89,1.26,1.26,0,0,1-2,.58,2.63,2.63,0,0,1-.84-1.06,1.75,1.75,0,0,1,0-1.31c.18-.31.72-.37,1-.51A10,10,0,0,1,306.77,403.16Z"/><path class="cls-1" d="M328.35,431.33a1.73,1.73,0,0,1-.46,2.23.8.8,0,0,1-1.19-.12,17.06,17.06,0,0,1-1-2.31,3.79,3.79,0,0,1,.94-.69A1.33,1.33,0,0,1,328.35,431.33Z"/><path class="cls-1" d="M315.22,424.34a1.37,1.37,0,0,1-1.32,1.15,1.94,1.94,0,0,1-1.45-2.09,1.51,1.51,0,0,1,1.63-1.11A2,2,0,0,1,315.22,424.34Z"/><path class="cls-1" d="M326.49,445a1.21,1.21,0,0,1-1,1.41,1,1,0,0,1-1.22-.78c-.17-.53-.29-1.08-.46-1.71a3.63,3.63,0,0,1,.7-.75.86.86,0,0,1,.73,0A2.5,2.5,0,0,1,326.49,445Z"/><path class="cls-1" d="M325.58,418.68a1.44,1.44,0,0,1-1.47,1.32,1.69,1.69,0,0,1-1.47-1.76c0-.69.68-1.13,1.61-1.06A1.42,1.42,0,0,1,325.58,418.68Z"/><path class="cls-1" d="M341.85,456.65a1.1,1.1,0,0,1-1.43-.43,1.38,1.38,0,0,1-.24-1,3.11,3.11,0,0,1,2.13-2.08c0,1,.08,1.85,0,2.65A1.2,1.2,0,0,1,341.85,456.65Z"/><path class="cls-1" d="M300.57,392.58a.92.92,0,0,1-1,1A1.64,1.64,0,0,1,298,392a1.37,1.37,0,0,1,1.5-1.22A1.72,1.72,0,0,1,300.57,392.58Z"/><path class="cls-1" d="M300.49,408.7a1.05,1.05,0,0,1-.6.45,1.15,1.15,0,0,1-1.38-.57,1.61,1.61,0,0,1-.19-1.82c.17-.25.55-.34.7-.43A1.84,1.84,0,0,1,300.49,408.7Z"/><path class="cls-1" d="M311.92,391.39a2,2,0,0,1,.24,2.57.92.92,0,0,1-.72.23c-.82-.16-1.4-1.2-1.3-2.47.19-.18.47-.59.83-.71A1.13,1.13,0,0,1,311.92,391.39Z"/><path class="cls-1" d="M296.1,398.7a1.44,1.44,0,0,1,.15.82,1.27,1.27,0,0,1-1.07,1.36c-.67.05-1.32-.73-1.27-1.66.06-.15.15-.41.24-.67.16-.48.5-.88,1-.73A2.41,2.41,0,0,1,296.1,398.7Z"/><path class="cls-1" d="M316.77,453.28c0,.43-.46.86-.67,1.23l-.46-.12a2.14,2.14,0,0,1-1.42-2.44,1,1,0,0,1,.67-.7C315.76,451.15,316.72,452.12,316.77,453.28Z"/><path class="cls-1" d="M325.42,388.28a8.4,8.4,0,0,1,1.06,1.71c-.4.42-.64.9-1,1a1.5,1.5,0,0,1-1.2-.37,2.16,2.16,0,0,1-.49-1.3,1.52,1.52,0,0,1,.41-1.19A1.25,1.25,0,0,1,325.42,388.28Z"/><path class="cls-1" d="M306.19,432.64a1.26,1.26,0,0,1-1.44,1.28c-.68-.15-1.08-.87-1-1.82a1,1,0,0,1,1.07-1A1.46,1.46,0,0,1,306.19,432.64Z"/><path class="cls-1" d="M330.89,416.8a1,1,0,0,1-.76.61,1.87,1.87,0,0,1-1.71-1.91,1,1,0,0,1,1.16-.87A1.78,1.78,0,0,1,330.89,416.8Z"/><path class="cls-1" d="M366.38,402.9c-.07.51-.34.91-.84.92-.83,0-1.82-.87-1.77-1.5a1.56,1.56,0,0,1,1.6-1.18A1.44,1.44,0,0,1,366.38,402.9Z"/><path class="cls-1" d="M353.25,383.58a1.86,1.86,0,0,1-.23,1.28,1.73,1.73,0,0,1-2.2.36c-.26-.16-.38-.57-.48-.74a1.75,1.75,0,0,1,1.84-1.53C352.65,382.92,353.16,383,353.25,383.58Z"/><path class="cls-1" d="M296,419.64a3,3,0,0,1,.33,1.26,1.17,1.17,0,0,1-1.45.84,2.57,2.57,0,0,1-.85-1,2.81,2.81,0,0,1-.1-1c.12-.23.25-.74.48-.79a2.5,2.5,0,0,1,1.2.28A.69.69,0,0,1,296,419.64Z"/><path class="cls-1" d="M307,419.14c.1.92-.72,1.71-1.41,1.55a1.56,1.56,0,0,1-1.1-1.69c.09-.73.77-1.16,1.85-1C306.48,418.29,306.93,418.7,307,419.14Z"/><path class="cls-1" d="M316.55,438.3a1,1,0,0,1-1.13.9,1.9,1.9,0,0,1-1-.75,2.23,2.23,0,0,1-.21-.9c0-.92.64-1.44,1.23-1.23A1.79,1.79,0,0,1,316.55,438.3Z"/><path class="cls-1" d="M348.21,396.19a1.17,1.17,0,0,1-1.29,1.11,1.54,1.54,0,0,1-1.21-1.67c.1-.78.63-1.23,1.28-1.09A1.46,1.46,0,0,1,348.21,396.19Z"/><path class="cls-1" d="M365.81,427.85a1,1,0,0,1-.72,1.4.94.94,0,0,1-.34,0,2.72,2.72,0,0,1-1.44-2.2c0-.4.67-.9,1-.66A7.82,7.82,0,0,1,365.81,427.85Z"/><path class="cls-1" d="M322.5,428.82c.28.21.63.5.69.8a1.16,1.16,0,0,1-.43.9,5,5,0,0,1-1.17.56,9.1,9.1,0,0,1-.78-.49,1.2,1.2,0,0,1-.45-1.5c.25-.63.79-.68,1.36-.53A2.18,2.18,0,0,1,322.5,428.82Z"/><path class="cls-1" d="M351.16,435.8a1.88,1.88,0,0,1-.06,1.33c-.2.3-.76.33-1.29.52a5.72,5.72,0,0,1-1.11-1.15c-.24-.44.39-1.13,1.1-1.33A1.07,1.07,0,0,1,351.16,435.8Z"/><path class="cls-1" d="M355.92,450.11a9.45,9.45,0,0,1-.17,2.13,1.21,1.21,0,0,1-1,.59,1.75,1.75,0,0,1-1-.83.86.86,0,0,1,.28-1.22A12.11,12.11,0,0,1,355.92,450.11Z"/><path class="cls-1" d="M311.17,416.21a.93.93,0,0,1-1,1,1.29,1.29,0,0,1-1.18-1.58,1.73,1.73,0,0,1,1.58-1.38A15.61,15.61,0,0,1,311.17,416.21Z"/><path class="cls-1" d="M304.52,393c-.06.8-.6,1.31-1.23,1.15a1.21,1.21,0,0,1-.94-1.25,1.09,1.09,0,1,1,2.17.1Z"/><path class="cls-1" d="M241.74,419.76c-1.08-.92-2.22-1.76-3.34-2.64l-3.34-2.63-.06.08c-3.17-2.15-6.33-4.33-9.52-6.45a48.48,48.48,0,0,0-9.11-4.56,5.74,5.74,0,0,0-3.73-.47,1.47,1.47,0,0,0-1.08,2.08,11.36,11.36,0,0,0,1.58,2.61,43.2,43.2,0,0,0,11.16,9.31c2.16,1.29,4.34,2.53,6.44,3.91a19,19,0,0,0,7.51,2.73,8.78,8.78,0,0,0,2.6-.13,2.08,2.08,0,0,0,.89-3.84Zm-12.88-5.38c-1.82-.13-3.2-1.25-4.65-2.25a20.44,20.44,0,0,1,2.14.81C227.21,413.36,228,413.89,228.86,414.38Zm8.64,5.16a15.45,15.45,0,0,1-1.79-.38.51.51,0,0,1-.26-.43c0-.14.31-.33.38-.29C236.2,418.63,236.54,418.89,237.5,419.54Z"/><path class="cls-1" d="M254.2,399.8a64.12,64.12,0,0,0-9.11-7.05c-3.67-2.29-7.42-4.43-11.15-6.61a10.29,10.29,0,0,0-4.79-1.45,3.57,3.57,0,0,0-1.41.23,1.41,1.41,0,0,0-.6,2,7.07,7.07,0,0,0,.94,1.22c1.56,1.62,3.13,3.21,4.71,4.8a6.7,6.7,0,0,0,1.17,1,55.52,55.52,0,0,0,5.46,3.16,41.78,41.78,0,0,1,5.46,3.15c3,1.92,6,3.59,9.59,3.77a4.91,4.91,0,0,1,1.18.43c.3-.64.54-1.17.75-1.65A6.25,6.25,0,0,0,254.2,399.8Zm-3.13,1.1a16.19,16.19,0,0,1-2.25-1.11c-.21-.15-.19-.68-.27-1,.26,0,.6-.2.78-.08A3.2,3.2,0,0,1,251.07,400.9Z"/><path class="cls-1" d="M225.07,421.08a1.29,1.29,0,0,1-.3,1.64,2.86,2.86,0,0,1-.74.46c-1.33.44-2.83.26-4,1.27-.31.26-1.17,0-1.67-.24a41,41,0,0,1-5.24-2.89c-2.47-1.74-4.78-3.73-6.73-5.27l-7.57-6.48a13.67,13.67,0,0,1-1.12-1,1.26,1.26,0,0,1-.28-1.66,1.54,1.54,0,0,1,1.2-.56,8.45,8.45,0,0,1,2.57.6c2.19.95,4.34,2,6.5,3,5.27,2.44,10,5.88,15,8.88a11.44,11.44,0,0,1,1.65,1.33A4.73,4.73,0,0,1,225.07,421.08Z"/><path class="cls-1" d="M237.26,397.22c-5.07-5.06-11.13-8.25-17.54-10.76a5.11,5.11,0,0,0-2.27-.2,1.1,1.1,0,0,0-.66,1.68,14.71,14.71,0,0,0,1.72,2.13c2.09,2.07,4.16,4.19,6.36,6.11a29.44,29.44,0,0,0,9,5.32c1.3.5,2.59,1,3.9,1.43,1.49.48,3,.87,4.73,1.37l.74-1.55c-.2-.32-.27-.55-.42-.64a12.62,12.62,0,0,0-1.81-1,4,4,0,0,1-2-1.74A10.35,10.35,0,0,0,237.26,397.22Zm-14.74-6.86-.06.14-.15-.17Z"/><path class="cls-1" d="M244.64,410.31a12.28,12.28,0,0,0-1.51-1.7c-1.77-1.07-3.43-2-5-3.05-4.7-3.07-9.56-5.85-14.47-8.51a17.27,17.27,0,0,0-2.74-1.15,1.35,1.35,0,0,0-1.79.55,1.61,1.61,0,0,0,.31,1.72c1.51,1.79,3,3.62,4.61,5.3a37.17,37.17,0,0,0,10.42,7.12c1.68.85,3.4,1.64,5.12,2.4a10.84,10.84,0,0,0,2,.6,2.78,2.78,0,0,0,3.23-1.84A1.9,1.9,0,0,0,244.64,410.31Zm-3,.61c-1.81-.1-3.43-1-5.36-1.93a2.16,2.16,0,0,1,3.08-.39c.66.44,1.36.81,2,1.25C241.67,410.06,242,410.35,241.61,410.92Z"/><path class="cls-1" d="M472.29,23.28c-1.31.35-2.6.81-3.89,1.22l-3.89,1.21,0,.11c-3.43,1.38-6.86,2.73-10.27,4.14a44.54,44.54,0,0,0-8.59,4.95,5.93,5.93,0,0,0-2.45,2.9,1.58,1.58,0,0,0,1,2.2,10.06,10.06,0,0,0,2.88.27A37.93,37.93,0,0,0,460.5,36.5c2.2-1,4.37-2.14,6.6-3.08a18.3,18.3,0,0,0,6.29-4.71,9.87,9.87,0,0,0,1.35-2.3,2.43,2.43,0,0,0-.28-2.62A1.85,1.85,0,0,0,472.29,23.28ZM461,30.94c-1.11,1.47-2.74,2-4.32,2.58a21,21,0,0,1,1.81-1.33C459.26,31.72,460.12,31.35,461,30.94Zm8.79-4.18a17.83,17.83,0,0,1-1.29,1.29.48.48,0,0,1-.48,0c-.09-.11-.08-.47,0-.51A18.14,18.14,0,0,1,469.75,26.76Z"/><path class="cls-1" d="M463.92.32a56.12,56.12,0,0,0-10.51,3.42c-3.81,1.72-7.54,3.59-11.3,5.43a10,10,0,0,0-3.79,3.19,4,4,0,0,0-.61,1.35,1.46,1.46,0,0,0,1.23,1.76,7.11,7.11,0,0,0,1.46,0c2.11-.34,4.21-.69,6.32-1.07a5.33,5.33,0,0,0,1.4-.4,47.87,47.87,0,0,0,5.47-2.7,38.64,38.64,0,0,1,5.47-2.71c3.13-1.34,6.13-2.94,8.25-5.85a4.64,4.64,0,0,1,1-.75c-.33-.64-.6-1.18-.85-1.65A5.4,5.4,0,0,0,463.92.32ZM463,3.67a17.63,17.63,0,0,1-2.12,1.24c-.23.08-.62-.26-.94-.41.12-.25.18-.63.38-.72A2.81,2.81,0,0,1,463,3.67Z"/><path class="cls-1" d="M464,38.31a1.3,1.3,0,0,1,1.09,1.27,3,3,0,0,1-.06.91c-.41,1.41-1.37,2.58-1.27,4.23,0,.42-.65,1-1.12,1.27a35,35,0,0,1-5.15,2.68c-2.71,1-5.53,1.78-7.8,2.49l-9.21,2.46a11.08,11.08,0,0,1-1.41.32,1.16,1.16,0,0,1-1.43-.79,1.81,1.81,0,0,1,.24-1.37,8.41,8.41,0,0,1,1.9-1.82c1.94-1.28,4-2.46,5.93-3.69,4.81-3,10.11-4.92,15.19-7.31a10.72,10.72,0,0,1,1.95-.59A4,4,0,0,1,464,38.31Z"/><path class="cls-1" d="M452.47,13.18c-6.71,1.2-12.55,4.4-18.05,8.32A5.11,5.11,0,0,0,433,23.31a1.15,1.15,0,0,0,.91,1.6,12.5,12.5,0,0,0,2.6-.16c2.76-.5,5.54-1,8.25-1.64a26.69,26.69,0,0,0,9.11-4.39c1.1-.8,2.21-1.58,3.27-2.44s2.35-2,3.7-3.19l-.79-1.59c-.35,0-.57-.11-.72,0a12.37,12.37,0,0,0-1.82.91,3.5,3.5,0,0,1-2.45.63A9.06,9.06,0,0,0,452.47,13.18ZM439,21.52l.08.13-.21,0Z"/><path class="cls-1" d="M466.65,15a10.63,10.63,0,0,0-2.14.23c-1.82.85-3.46,1.69-5.15,2.41-5,2.11-9.84,4.53-14.62,7.08a16.44,16.44,0,0,0-2.41,1.63,1.5,1.5,0,0,0-.58,1.86,1.47,1.47,0,0,0,1.49.81c2.22-.19,4.45-.33,6.65-.67a33.37,33.37,0,0,0,11.28-4.48c1.6-.92,3.16-1.9,4.71-2.9a9.32,9.32,0,0,0,1.56-1.32,3.15,3.15,0,0,0,.4-3.89A1.77,1.77,0,0,0,466.65,15Zm-1.23,3c-1.08,1.49-2.7,2.3-4.47,3.39-.21-1.62.32-2.43,1.42-2.88.71-.28,1.38-.65,2.09-.94C464.8,17.35,465.2,17.25,465.42,17.92Z"/><path class="cls-1" d="M530.12,451c0,1.44.16,2.88.23,4.32s.16,2.88.23,4.32h.1c.48,3.89.94,7.79,1.46,11.68a52.4,52.4,0,0,0,2.57,10.22,6.61,6.61,0,0,0,2.09,3.35,1.38,1.38,0,0,0,2.25-.35,11,11,0,0,0,.9-2.86,45.42,45.42,0,0,0-.4-14.75c-.45-2.54-1-5.08-1.32-7.63a21.4,21.4,0,0,0-2.88-7.81,9.71,9.71,0,0,0-1.8-2.05,2.12,2.12,0,0,0-2.46-.5C530.26,449.25,530.11,450.12,530.12,451Zm4.43,13.81c1.1,1.58,1.18,3.38,1.38,5.17-.27-.74-.6-1.48-.8-2.24C534.88,466.73,534.74,465.74,534.55,464.76Zm-1.82-10.19c.55,1,.76,1.35.9,1.7a.54.54,0,0,1-.16.48c-.11.05-.44-.06-.46-.15C532.91,456.18,532.88,455.75,532.73,454.57Z"/><path class="cls-1" d="M507.19,452.6a67.61,67.61,0,0,0,.73,11.72c.71,4.38,1.57,8.75,2.39,13.12a11.83,11.83,0,0,0,2.06,4.8,4.1,4.1,0,0,0,1.09,1,1.29,1.29,0,0,0,1.9-.73,7.41,7.41,0,0,0,.29-1.49c.18-2.25.33-4.5.47-6.75a6.1,6.1,0,0,0,0-1.54,59.37,59.37,0,0,0-1.23-6.38,46.2,46.2,0,0,1-1.23-6.37c-.51-3.58-1.3-7.11-3.48-10.14a5.41,5.41,0,0,1-.45-1.23L508,449A6.12,6.12,0,0,0,507.19,452.6Zm2.86,1.93a20.52,20.52,0,0,1,.65,2.52c0,.26-.38.56-.59.84-.2-.2-.53-.38-.57-.61A3.16,3.16,0,0,1,510.05,454.53Z"/><path class="cls-1" d="M542,463.88a1.14,1.14,0,0,1,1.41-.73,3,3,0,0,1,.83.34c1.19.83,2,2.17,3.57,2.56.4.1.78.95.92,1.52a43.43,43.43,0,0,1,1.28,6c.32,3.07.36,6.16.5,8.68,0,3.74.1,6.92.15,10.1,0,.52,0,1,0,1.54-.06.67-.4,1.22-1,1.21a1.73,1.73,0,0,1-1.21-.65,10,10,0,0,1-1.23-2.47c-.73-2.37-1.35-4.76-2-7.14-1.64-5.79-2.2-11.75-3.23-17.64a11.87,11.87,0,0,1-.09-2.15A4.43,4.43,0,0,1,542,463.88Z"/><path class="cls-1" d="M516.35,468.09c-.43,7.19,1.17,14.08,3.5,20.86a5.84,5.84,0,0,0,1.34,2,1,1,0,0,0,1.67-.45,14.4,14.4,0,0,0,.45-2.69c.17-3,.39-5.92.37-8.89a32,32,0,0,0-1.93-10.57c-.48-1.36-1-2.73-1.49-4.06-.62-1.51-1.32-3-2.08-4.71l-1.63.32a2.43,2.43,0,0,0-.21.72,15,15,0,0,0,.42,2.12,4.17,4.17,0,0,1,0,2.68A10.43,10.43,0,0,0,516.35,468.09Zm4.56,16.23.14,0,0,.22Z"/><path class="cls-1" d="M521.23,454.21a12.67,12.67,0,0,0-.28,2.25c.37,2.1.76,4,1,6,.8,5.71,1.91,11.36,3.15,17a19,19,0,0,0,.94,2.94c.35.87,1,1.29,1.58,1.15a1.44,1.44,0,0,0,1.07-1.28c.34-2.32.72-4.63.91-7a40.11,40.11,0,0,0-1.53-12.82c-.47-1.9-1-3.78-1.58-5.66a11.15,11.15,0,0,0-.85-2,3,3,0,0,0-3.48-1.57A1.68,1.68,0,0,0,521.23,454.21Zm2.43,2.12c1.11,1.55,1.48,3.44,2.07,5.57a2.43,2.43,0,0,1-2.3-2.31c-.11-.8-.29-1.6-.39-2.4C523,456.8,523,456.36,523.66,456.33Z"/><path class="cls-1" d="M442.61,527.94c-3.19.88-4,4.63-1.9,7.09a8.54,8.54,0,0,0,1.25,1,2.42,2.42,0,0,0,2.3-.88,4.08,4.08,0,0,1,1.27-.91,2.59,2.59,0,0,0,1.39-2.76c-.11-1,0-2.21-1-2.87A4.07,4.07,0,0,0,442.61,527.94Zm.55,2.13a1.21,1.21,0,0,1,1.14.68,2.33,2.33,0,0,1,.08,2.51c-.28.48-.65.89-1.27.8a2.1,2.1,0,0,1-1.42-2.88A1.68,1.68,0,0,1,443.16,530.07Z"/><path class="cls-1" d="M421.63,557.2a3.23,3.23,0,0,0,1.21,4,7.84,7.84,0,0,0,1,.42c1.3.39,2.39.51,3.2-.71.2-.29.66-.37,1-.59a2.74,2.74,0,0,0,.2-4.34A4.19,4.19,0,0,0,421.63,557.2Zm4.46.5a.81.81,0,0,1,.36,1,1.64,1.64,0,0,1-2.25,1,1,1,0,0,1-.43-1.74A1.91,1.91,0,0,1,426.09,557.7Z"/><path class="cls-1" d="M417.49,499.74c-2.23-.74-4.06-.06-4.83,1.49a2.37,2.37,0,0,0,0,2.32,14.43,14.43,0,0,0,.75,1.26,2.43,2.43,0,0,0,2.41,1.2c.67-.08,1.51.06,2-.3A5.83,5.83,0,0,0,420,503a1.72,1.72,0,0,0-.48-2C418.73,500.46,417.89,500,417.49,499.74Zm-.77,2a1.18,1.18,0,0,1,.26,1.54,10.22,10.22,0,0,1-.52,1.05,2.19,2.19,0,0,1-2.07-1.76,1.13,1.13,0,0,1,.2-.88A1.67,1.67,0,0,1,416.72,501.77Z"/><path class="cls-1" d="M432.22,541.08c-2.32-.16-3.57,1.45-3.05,3.83a4,4,0,0,0,4.05,3.33,1.61,1.61,0,0,0,1.81-1.1c.14-.4.61-.66.87-1a5,5,0,0,0,.79-1.4c.44-1.65-.14-2.64-1.94-3.18A20.43,20.43,0,0,0,432.22,541.08Zm-.1,1.69a9.62,9.62,0,0,1,1.19.19c1.26.37,1.57,1.09,1,2.07a3.54,3.54,0,0,1-.91,1.05.91.91,0,0,1-.85.12,6,6,0,0,1-1.57-1.4A1.31,1.31,0,0,1,432.12,542.77Z"/><path class="cls-1" d="M470.07,549.7a3.42,3.42,0,0,0-3.08,2.13,3,3,0,0,0,.33,3.22,10.72,10.72,0,0,0,.9,1.14,2.11,2.11,0,0,0,2.51.77,2.59,2.59,0,0,1,.64-.23c1.87-.1,2.5-1.57,3-2.76.45-1.56.23-2.33-.8-3.07A6,6,0,0,0,470.07,549.7Zm-.15,2a2.88,2.88,0,0,1,2.39,1,3.37,3.37,0,0,1-.61,3,14.48,14.48,0,0,1-1.91-.66,3.33,3.33,0,0,1-1-.94,1.49,1.49,0,0,1-.13-1.61A1.26,1.26,0,0,1,469.92,551.7Z"/><path class="cls-1" d="M415.81,541.93c-1.41-.19-2.79-.26-3.77,1a2.49,2.49,0,0,0-.54,1,4.35,4.35,0,0,0,3.6,4.87,3.83,3.83,0,0,0,3.53-2.5A3.37,3.37,0,0,0,415.81,541.93Zm-.35,1.83c.62.18.92.59,1,1.44a5.67,5.67,0,0,1,0,.71c0,.75-.59,1.13-1.66.73a11.42,11.42,0,0,1-1.32-1.35,1.22,1.22,0,0,1,.09-1.06A1.53,1.53,0,0,1,415.46,543.76Z"/><path class="cls-1" d="M457.34,562.56l1.51-.47a1.17,1.17,0,0,0,.23-.46,3.7,3.7,0,0,1,1-1.54c1.31-1.48,1-3-.73-3.9a3.06,3.06,0,0,0-.69-.29c-1.37-.44-2.3-.67-3.28-.1a3.48,3.48,0,0,0-.48,5.68A3.8,3.8,0,0,0,457.34,562.56Zm-.47-2.13a1.88,1.88,0,0,1-1.25-2.07c.21-.68.84-.93,1.7-.68s1.18.72,1.05,1.35C458.14,560.05,457.47,560.68,456.87,560.43Z"/><path class="cls-1" d="M440.05,558.17a3,3,0,0,0-3.71,2.59,4.82,4.82,0,0,0,2.31,4.76,3.61,3.61,0,0,0,1.54.41c.87.06,1.25-.33,1.25-1.27a1.69,1.69,0,0,1,.32-1.34,1.42,1.42,0,0,0,.26-.38C443.2,560.29,442.18,559.1,440.05,558.17Zm-.28,2.32a1.5,1.5,0,0,1,.53,1,2.26,2.26,0,0,1-.69,1.86,2.14,2.14,0,0,1-1.35-2.07,1.13,1.13,0,0,1,.49-.93A1.16,1.16,0,0,1,439.77,560.49Z"/><path class="cls-1" d="M425.29,529.77a3.71,3.71,0,0,0-3.89.63,3,3,0,0,0,2,5.34,11.18,11.18,0,0,0,3.06-.82,2,2,0,0,0,1.34-2.26A3.13,3.13,0,0,0,426,530,3.78,3.78,0,0,0,425.29,529.77Zm-1.24,2.08a2.26,2.26,0,0,1,1,.54c.19.19.19.58.29.94a2.74,2.74,0,0,1-.81.5,1.9,1.9,0,0,1-.91-.1c-.88-.23-1.35-.76-1.16-1.25A1.26,1.26,0,0,1,424.05,531.85Z"/><path class="cls-1" d="M411.14,555.58a4.68,4.68,0,0,0-2.85,0,2,2,0,0,0-1.32,2.26,5,5,0,0,0,2.91,3.88,2.56,2.56,0,0,0,2-.26,3.35,3.35,0,0,0,2.05-3.39,1.81,1.81,0,0,0-.83-1.42C412.44,556.27,411.73,555.91,411.14,555.58Zm-1.41,2.11a1.61,1.61,0,0,1,.52.07,3.65,3.65,0,0,1,.55.23,1,1,0,0,1,.49,1.19c-.15.4-.66.5-1.15.18a4.43,4.43,0,0,1-.87-.75.71.71,0,0,1-.08-.63C409.26,557.82,409.53,557.74,409.73,557.69Z"/><path class="cls-1" d="M391.26,559a3,3,0,0,0-3.09,2.85,3.28,3.28,0,0,0,2.58,3.77,4.3,4.3,0,0,0,1.6,0c.33-.06.82-.35.86-.61.14-.82.73-1.18,1.2-1.67a2.2,2.2,0,0,0-.29-3.47,7.78,7.78,0,0,0-1.25-.65A15.16,15.16,0,0,0,391.26,559Zm.46,2.3c.52.23.7.74.49,1.43s-.72,1.18-1.3,1A1.37,1.37,0,0,1,390,562,1.17,1.17,0,0,1,391.72,561.3Z"/><path class="cls-1" d="M382.92,546.37a2.28,2.28,0,0,0-1,1.54c-.27,1.6.87,4,2.24,4.52a2.35,2.35,0,0,0,1.57-.06,8.39,8.39,0,0,0,2-1.12,2.71,2.71,0,0,0,.48-3.85A3.73,3.73,0,0,0,382.92,546.37Zm1.66,1.45a1.51,1.51,0,0,1,1.56.77,1,1,0,0,1,0,1.3c-.31.38-.65.64-1.16.36a1.76,1.76,0,0,1-1-2.07A1.87,1.87,0,0,1,384.58,547.82Z"/><path class="cls-1" d="M436.65,501a4.79,4.79,0,0,0-4.33.39,1.77,1.77,0,0,0-.68,2.65c.73,1.49,3,2.91,4.46,2.61a4.15,4.15,0,0,0,1.73-1.06c.74-.66,1.58-1.41,1.37-2.59S437.79,501.38,436.65,501ZM434,502.69a4.84,4.84,0,0,1,1.14,0c1.25.15,1.39.42,1.1,1.94-1.82,0-1.82,0-3-1.59A2.79,2.79,0,0,1,434,502.69Z"/><path class="cls-1" d="M430.67,517.38a4.93,4.93,0,0,0-5.1-.22,2.13,2.13,0,0,0-1.08,1.47,3.69,3.69,0,0,0,2.83,4.35,11.42,11.42,0,0,0,1.44,0c.8-.84,1.65-1.64,2.4-2.53A1.9,1.9,0,0,0,430.67,517.38ZM427,518.46a1.79,1.79,0,0,1,1.9.42,2.19,2.19,0,0,1-.78,2.09,2,2,0,0,1-1.6-.79A1.08,1.08,0,0,1,427,518.46Z"/><path class="cls-1" d="M458.42,539.86a3.84,3.84,0,0,0-4.06,1.33,3.51,3.51,0,0,0,.06,3.69c.63,1.28,2.27,2.55,3.64,1.92.14-.06.36,0,.42-.16.75-1.16,2-1.87,2.46-3.29a2.25,2.25,0,0,0-1.21-2.82C459.25,540.27,458.75,540,458.42,539.86Zm-1.52,1.71a3.14,3.14,0,0,1,1.5.47,1,1,0,0,1,.43,1.27,21.2,21.2,0,0,1-1,1.94,2.73,2.73,0,0,1-2-1.57A1.38,1.38,0,0,1,456.9,541.57Z"/><path class="cls-1" d="M401.18,540.37c-.43-.18-.88-.3-1.58-.54-.54.32-1.06.61-1.57.94a2.79,2.79,0,0,0-1.08,3.35,3.3,3.3,0,0,0,2.69,2.7,2,2,0,0,0,2.19-.88c.41-.66,1-1.22,1.37-1.88a2,2,0,0,0-.76-3.06A7.8,7.8,0,0,0,401.18,540.37Zm-.41,2.19a1,1,0,0,1,.2,1.29c-.22.39-.49.75-.71,1.09a1.66,1.66,0,0,1-1.46-1.17,1.08,1.08,0,0,1,.31-1.28A1.24,1.24,0,0,1,400.77,542.56Z"/><path class="cls-1" d="M406.14,567.19c-1-.08-2.07-.15-2.66.9a3.61,3.61,0,0,0-.12,3.68,5,5,0,0,0,2.06,2,1.53,1.53,0,0,0,.89.19,4.19,4.19,0,0,0,3.36-2.12,2,2,0,0,0,0-2.08A4.41,4.41,0,0,0,407,567.4,4.88,4.88,0,0,0,406.14,567.19Zm-.26,1.89a1.83,1.83,0,0,1,1.68,1.14c.33.79,0,1.41-.74,2a3,3,0,0,1-2-1.8,1.05,1.05,0,0,1,0-.91A1.34,1.34,0,0,1,405.88,569.08Z"/><path class="cls-1" d="M469.18,525a5.78,5.78,0,0,0-4.15,1c-1.59,1.17-1.58,2.7,0,3.94a10.6,10.6,0,0,0,1.43.82,2.88,2.88,0,0,0,3.24-.6,19.43,19.43,0,0,0,2-2.27,1.4,1.4,0,0,0-.25-1.78A3.44,3.44,0,0,0,469.18,525Zm-.91,1.78a1,1,0,0,1,.88,1.17,7.33,7.33,0,0,1-.45,1.27,3.26,3.26,0,0,1-.77.07c-1.37-.24-2.25-.91-2-1.52A2.25,2.25,0,0,1,468.27,526.8Z"/><path class="cls-1" d="M404.34,514.21a2.63,2.63,0,0,1,1.19,2.49,3.81,3.81,0,0,1-1.38,2.9c-.15.13-.41.1-.66.15-.49-.93,0-1.77,0-2.63a1.55,1.55,0,0,0-1.15-1.85,2.54,2.54,0,0,0-2.57.54.83.83,0,0,0-.05,1.26c.58.51,1.21,1,1.82,1.44-1,1.43-1.86,1.55-2.76.45a7.43,7.43,0,0,1-.85-1.17,2.45,2.45,0,0,1,.27-2.91A4.73,4.73,0,0,1,404.34,514.21Z"/><path class="cls-1" d="M408.73,524a12.07,12.07,0,0,0-1.82.2,2,2,0,0,0-1.42,2.78,5.31,5.31,0,0,0,1.34,2.29c1.22,1.13,2.19,1.11,3.4,0,.56-.52,1.21-.92,1.91-1.45a2.69,2.69,0,0,0-.72-2.58A3.31,3.31,0,0,0,408.73,524Zm-.11,2a6.71,6.71,0,0,1,1.05.66,4.52,4.52,0,0,1-.55.84c-.34.34-.8.58-1.18.09a2.78,2.78,0,0,1-.49-1.29C407.4,526,408.05,525.8,408.62,526Z"/><path class="cls-1" d="M426.6,572.85a3.66,3.66,0,0,0-3.27.68,2.53,2.53,0,0,0-.68,3.41,4.65,4.65,0,0,0,3.55,2.52c.8.11,1-.08,1.4-1.09a8.74,8.74,0,0,1,.52-1c.22-.41.46-.81.54-1A2.83,2.83,0,0,0,426.6,572.85Zm-.78,1.88a1,1,0,0,1,.61,1.35c-.24.7-.74,1.06-1.17.83a1.65,1.65,0,0,1-1-1.72C424.4,574.65,425.06,574.46,425.82,574.73Z"/><path class="cls-1" d="M393.85,527.07a5.56,5.56,0,0,0-3.18,1.24,2.54,2.54,0,0,0-.71,3.05c.31.74.75,1.43,1.19,2.24,1.05-.06,1.82-.08,2.58-.17a3.32,3.32,0,0,0,2.87-4.1A2.89,2.89,0,0,0,393.85,527.07Zm-.69,2a1.21,1.21,0,0,1,1.4,1.21,4.87,4.87,0,0,1-.07.75c-.35,1.33-1,1.56-1.88.81a4.17,4.17,0,0,1-.79-.89.91.91,0,0,1,.15-1.28A3.34,3.34,0,0,1,393.16,529.05Z"/><path class="cls-1" d="M417.84,510.24a8.68,8.68,0,0,0-2.65.62,2.55,2.55,0,0,0-1.31,2.8,5.73,5.73,0,0,0,1.71,2.89,1.2,1.2,0,0,0,.85.3,7.46,7.46,0,0,0,1.38-.3c.56-.92,1-1.64,1.43-2.4a4.91,4.91,0,0,0,.59-1.54A1.91,1.91,0,0,0,417.84,510.24Zm-.64,2.24a1.81,1.81,0,0,1-.57,1.93c-.57-.19-1-.58-.85-1.22S416.53,512.32,417.2,512.48Z"/><path class="cls-1" d="M460.24,516.16a1.57,1.57,0,0,1,.36,1.59,3.46,3.46,0,0,1-3.43,2.5c.4-.83.67-1.29.85-1.79a1.15,1.15,0,0,0-.32-1.33,2,2,0,0,0-2.18-.33.86.86,0,0,0-.22,1.25c.3.26.7.38,1,.64s.42.58.36.78a1,1,0,0,1-.67.54c-1,.21-1.72-.23-2.44-1.45a2,2,0,0,1,0-2.28A4.26,4.26,0,0,1,460.24,516.16Z"/><path class="cls-1" d="M442.88,512.64a3.73,3.73,0,0,0-4.84,1.94,3.33,3.33,0,0,0,1.27,4,1.7,1.7,0,0,0,1.76.11c.94-.52,1.84-1.09,2.75-1.65a1.43,1.43,0,0,0,.34-.31c1.17-1.38,1.47-2.85-.84-4C443.18,512.73,443,512.69,442.88,512.64Zm-1.37,1.15a1.17,1.17,0,0,1,1,1.84,4.55,4.55,0,0,1-.63,1,1.25,1.25,0,0,1-1.65.32,1.62,1.62,0,0,1-.7-1.88A1.82,1.82,0,0,1,441.51,513.79Z"/><path class="cls-1" d="M455.19,527.92a3.34,3.34,0,0,0-4.26,2.07,2.78,2.78,0,0,0,.59,2.73c1.47,1.78,1.76,1.86,3.64.64a7.3,7.3,0,0,0,1.62-1.29c1-1.2.81-2.53-.53-3.51A11.46,11.46,0,0,0,455.19,527.92Zm-.79,1.82c.54.21.59.72.58,1.23,0,.16,0,.33,0,.7-.17.22-.38.71-.74.89s-.83-.28-1.16-.63a1.59,1.59,0,0,1-.26-.41,1.3,1.3,0,0,1,1.61-1.78Z"/><path class="cls-1" d="M471.4,537.06a3.72,3.72,0,0,0-3.09,1.19,2.26,2.26,0,0,0-.43,1.54,4,4,0,0,0,2.19,3.26,1.17,1.17,0,0,0,1.71-.62q.51-.91,1.08-1.77C473.91,539.08,473.41,537.65,471.4,537.06Zm-.95,2c.22.52.43.79.4,1s-.31.42-.48.63c-.17-.24-.45-.47-.48-.72S470.15,539.52,470.45,539.05Z"/><path class="cls-1" d="M529,279.62c.33.68.59,1.41.79,1.9.48,1.33.7,2.44,0,3.49a12.27,12.27,0,0,1-4.15,4.23c-2,1.15-4.73-.11-5.65-2.38-1.54-3.84,1.71-9.06,5.39-9.28A3.44,3.44,0,0,1,529,279.62Z"/><path class="cls-1" d="M541.35,249.17c.7,4.07-1.46,7-4.82,7.26-1.07.07-2.17-.15-3.25-.14a2.22,2.22,0,0,1-2-1.27,4.07,4.07,0,0,1-.27-4.31c.32-.56.63-1.14,1-1.68,1.58-2.43,4-2.93,6.95-2.4A3.25,3.25,0,0,1,541.35,249.17Z"/><path class="cls-1" d="M541.93,264.29a7.19,7.19,0,0,1-5.24,6.71c-2,.62-4.87-1.23-5.34-3.41a3,3,0,0,1,.06-1.39,7.39,7.39,0,0,1,4.9-5.59,26.63,26.63,0,0,1,2.68,0C541.21,260.73,542,262.1,541.93,264.29Z"/><path class="cls-1" d="M496.72,253.64A2.29,2.29,0,0,1,499,255a6.33,6.33,0,0,1,.53,5.27,5.7,5.7,0,0,1-9.1,2.23c-2-1.71-2.23-3.68-.72-5.76a6.77,6.77,0,0,1,4.06-2.57C494.77,254,495.74,253.71,496.72,253.64Z"/><path class="cls-1" d="M506.11,295a7.9,7.9,0,0,1,.07,3.86c-.36,2.57-2.42,4.15-5.37,3.73a4.87,4.87,0,0,1-4.08-5c.36-2.94,1.68-4.79,4.45-5.66C503.64,291.14,505.19,292.05,506.11,295Z"/><path class="cls-1" d="M511.17,288a7.37,7.37,0,0,1-2.42,1.68,3.67,3.67,0,0,1-2.35.19,6.67,6.67,0,0,1-4.29-3.81,2.52,2.52,0,0,1,.76-3.27c.86-.64,1.82-1.14,2.36-1.48a6.45,6.45,0,0,1,4.16-.15A4.18,4.18,0,0,1,511.17,288Z"/><path class="cls-1" d="M521.21,295.48A12,12,0,0,0,519,297.2c-2,2.19-1.37,4.95,1.37,6.22a6.48,6.48,0,0,0,4.52.27,1.32,1.32,0,0,0,.71-.37c1.18-1.64,2.38-3.3,1.91-5.61a2.29,2.29,0,0,0-.49-1C525.64,295.06,523.69,294.52,521.21,295.48Zm3.73,2.58.52.47c-.08.22-.11.49-.21.51-.53.14-.44-.37-.53-.66C524.69,298.31,524.86,298.17,524.94,298.06Z"/><path class="cls-1" d="M519.94,251.65a5,5,0,0,1-1,2.89,6,6,0,0,1-8.73.52,2.07,2.07,0,0,1-.46-2.59c1-1.86,2.18-3.44,4.27-4a18.64,18.64,0,0,1,2.66-.35A3.39,3.39,0,0,1,519.94,251.65Z"/><path class="cls-1" d="M555.33,263.26c1.32,2.18,1.2,6-2.12,7.24a5.42,5.42,0,0,1-4-.06,3.2,3.2,0,0,1-2-4.33,6.28,6.28,0,0,1,4.26-4,9.26,9.26,0,0,1,1.49-.2A2.66,2.66,0,0,1,555.33,263.26Z"/><path class="cls-1" d="M519.17,264.55a1.45,1.45,0,0,1,.73.82,3.4,3.4,0,0,1-.4,3.73q-.45.51-.87,1c-1.69,2.22-3.81,2.66-6.21,1.28a3.09,3.09,0,0,1-1.46-3.89,4.59,4.59,0,0,1,3.2-3.14A6.82,6.82,0,0,1,519.17,264.55Z"/><path class="cls-1" d="M554.58,280a5.21,5.21,0,0,0-.08.55,3.11,3.11,0,0,1-2.57,3.15,7.63,7.63,0,0,1-3.46,0,3.51,3.51,0,0,1-2.55-4.14,4.93,4.93,0,0,1,3.35-3.81,11.35,11.35,0,0,1,1.75-.16C553.74,275.7,554.92,277.19,554.58,280Z"/><path class="cls-1" d="M502.83,277.58a4,4,0,0,1-.49,1.59,5.62,5.62,0,0,1-3.1,2.5,3.17,3.17,0,0,1-3.54-1.51,3.06,3.06,0,0,1,.42-3.65,21.14,21.14,0,0,1,2.32-1.75C501.25,273.91,503,275.23,502.83,277.58Z"/><path class="cls-1" d="M541,289.86c.59,1.37.37,2.25-.81,2.62a2.3,2.3,0,0,1-.91.08,1.74,1.74,0,0,1-1.08-.68,1.59,1.59,0,0,1,.13-1.29,4.85,4.85,0,0,1,1.11-1.2A1,1,0,0,1,541,289.86Z"/><path class="cls-1" d="M513,260.41a2,2,0,0,1,.27,1c.11,1.06-.66,1.46-1.34,1.89-1,.66-1.51.34-2-1.42.7-.53,1.28-.95,1.85-1.4C512.13,260.23,512.57,260,513,260.41Z"/><path class="cls-1" d="M217,46.15a1.81,1.81,0,0,0-1.74,1.69c-.95,2.49,1.22,4.92,3.08,5.26,1.24.23,3.72-2,3.63-3.27a9.27,9.27,0,0,0-.57-2.35,1.7,1.7,0,0,0-.81-.82A5.82,5.82,0,0,0,217,46.15Zm2,2.34a1.77,1.77,0,0,1,.59,1.73.9.9,0,0,1-1.05.67A2.17,2.17,0,0,1,217,49.23a1,1,0,0,1,.3-.82A1.46,1.46,0,0,1,219,48.49Z"/><path class="cls-1" d="M267.73,22.35a3.06,3.06,0,0,0,.6,3,3.87,3.87,0,0,0,1.23,1.12,1.75,1.75,0,0,0,1.29.2,17.3,17.3,0,0,0,2.7-1.24,2.85,2.85,0,0,0,1.35-2,2.26,2.26,0,0,0-.95-2.67A4.07,4.07,0,0,0,267.73,22.35Zm3.2-.28a1.6,1.6,0,0,1,1.68.55.94.94,0,0,1,.13.68,2.43,2.43,0,0,1-.41.84,1.48,1.48,0,0,1-2.53.13,2.57,2.57,0,0,1-.34-.72A1.79,1.79,0,0,1,270.93,22.07Z"/><path class="cls-1" d="M264.14,38.29A3.75,3.75,0,0,0,260,40.91a4.36,4.36,0,0,0,1.78,4.45,1.8,1.8,0,0,0,1.77.19,12.57,12.57,0,0,0,1.61-.88c1.76-1.09,2-1.91,1.16-4A3.26,3.26,0,0,0,264.14,38.29Zm-.86,2c.79.19,1,.94,1.29,1.6a1.28,1.28,0,0,1-.3,1.52c-.11.1-.22.25-.35.28a1.69,1.69,0,0,1-1.67-.57,1.75,1.75,0,0,1-.54-1.72A1.51,1.51,0,0,1,263.28,40.33Z"/><path class="cls-1" d="M258.47,29.13a2.79,2.79,0,0,0-3.55,2.13,4.26,4.26,0,0,0,2.14,4.7c1.5.58,3.92-.76,4.34-2.59C261.89,31.27,261,30.19,258.47,29.13Zm-.2,2.13a2.85,2.85,0,0,1,.83.83,6.59,6.59,0,0,1,.33,1.36,1.23,1.23,0,0,1-1.43.79,2.63,2.63,0,0,1-1.41-2.06,1.14,1.14,0,0,1,.64-1.14A.88.88,0,0,1,258.27,31.26Z"/><path class="cls-1" d="M232.29,36a2,2,0,0,0-1.85.74,4,4,0,0,0-.51,3.88,2.93,2.93,0,0,0,2.48,2c1.75.31,2.43,0,3.34-1.69a10.56,10.56,0,0,0,.66-1.24,1.93,1.93,0,0,0-.84-2.5,6.19,6.19,0,0,0-.63-.32l-1.36-.6C233.2,36.21,232.75,36.09,232.29,36Zm-.2,1.88a6.16,6.16,0,0,1,.86,0c.34.2.62.34.88.52a1.08,1.08,0,0,1-.05,1.93,2.58,2.58,0,0,1-.87.26c-.73.12-1.16-.17-1.39-1a3.07,3.07,0,0,1-.13-.95A.78.78,0,0,1,232.09,37.91Z"/><path class="cls-1" d="M243.79,36c-1.8.14-2.9,2.46-1.94,4.2a7.1,7.1,0,0,0,1.39,1.66,1.92,1.92,0,0,0,2.18.39,7.39,7.39,0,0,0,2.9-2.25,1.39,1.39,0,0,0-.14-2A7.27,7.27,0,0,0,245,36.19,4.37,4.37,0,0,0,243.79,36Zm.39,2.13a2.68,2.68,0,0,1,1.72,1.17,1.16,1.16,0,0,1,.08.47c-.06.14-.09.35-.19.41A1.74,1.74,0,0,1,243.37,39,.75.75,0,0,1,244.18,38.15Z"/><path class="cls-1" d="M234.33,50.53c-1.78,0-2.83,1.17-2.65,3a4.82,4.82,0,0,0,2.61,3.83c.58.34,1.4.36,1.71-.16.77-1.3,2.2-2.26,2-4.41-.5-.49-1-1-1.53-1.49A3.23,3.23,0,0,0,234.33,50.53Zm.33,2c1.22.35,1.51,1.19.86,2.37-.1.18-.32.29-.47.42-.87-.11-1.11-.86-1.46-1.47-.21-.36-.3-.82,0-1.08A1.33,1.33,0,0,1,234.66,52.51Z"/><path class="cls-1" d="M207.55,42.09a3.48,3.48,0,0,0-3.43.79,2,2,0,0,0-.59,2,4.84,4.84,0,0,0,1.94,3.26,1.65,1.65,0,0,0,2.63-.77,3.23,3.23,0,0,1,.68-1.19,2.1,2.1,0,0,0,.63-2.38C209.17,42.9,208.72,42.49,207.55,42.09Zm-1.17,2.22c.47.14.44.58.3,1a2.37,2.37,0,0,1-.41.53,3.25,3.25,0,0,1-.62-.33.67.67,0,0,1-.06-1A.92.92,0,0,1,206.38,44.31Z"/><path class="cls-1" d="M223.26,30.46a3.62,3.62,0,0,0-3-.19c-2.16.86-2.23,2.63-1.17,4.27a7.77,7.77,0,0,0,2,1.69,1,1,0,0,0,.67.11,3.59,3.59,0,0,0,2.91-2c.85-1.67.38-2.91-1.27-3.79C223.2,30.42,223,30.34,223.26,30.46ZM221,32a2.6,2.6,0,0,1,1.3.34,1.21,1.21,0,0,1,.19,1.72c-.26.34-.77.34-1.25-.07a5.32,5.32,0,0,1-.79-.91c-.08-.11,0-.3-.09-.59C220.57,32.38,220.79,32,221,32Z"/><path class="cls-1" d="M252.11,20.25l-4.74,1.49a4,4,0,0,0,0,2.13,3.27,3.27,0,0,0,2.28,2.24,1.84,1.84,0,0,0,2.26-.59c.57-.63,1.21-1.19,1.76-1.84a1.64,1.64,0,0,0-.32-2.66A11.19,11.19,0,0,0,252.11,20.25Zm-3,1.9a1.8,1.8,0,0,1,2.5-.17c.21.19.45.66.37.82a4,4,0,0,1-1.05,1.46c-.42.33-1.45-.16-1.81-.76a3.29,3.29,0,0,1-.26-.83A2.53,2.53,0,0,1,249.1,22.15Z"/><path class="cls-1" d="M251.11,45.34a2.07,2.07,0,0,0-2.27,1.24,2.7,2.7,0,0,0,.08,2.57,3.27,3.27,0,0,0,3.37,1.69,4.36,4.36,0,0,0,2.44-2.9,2.47,2.47,0,0,0-2.12-2.37C252.18,45.51,251.64,45.44,251.11,45.34Zm-.41,2.06,1.35.44c-.07.74-.41,1-.93.82S250.4,48.08,250.7,47.4Z"/><path class="cls-1" d="M466,147.77c-3.58-.21-5.6,3.31-4.18,6.53a9.69,9.69,0,0,0,1,1.48,2.65,2.65,0,0,0,2.67-.09,4.22,4.22,0,0,1,1.6-.49,2.65,2.65,0,0,0,2.3-2.32c.22-1.09.73-2.23-.11-3.25A4.62,4.62,0,0,0,466,147.77Zm-.09,2.35a1.35,1.35,0,0,1,1,1.09,2.41,2.41,0,0,1-.69,2.57,1.35,1.35,0,0,1-1.58.37,2.28,2.28,0,0,1-.58-3.42A1.79,1.79,0,0,1,465.89,150.12Z"/><path class="cls-1" d="M435.08,170.18a3.42,3.42,0,0,0,0,4.48,10.28,10.28,0,0,0,.87.77c1.22.84,2.32,1.34,3.55.38.29-.23.79-.14,1.18-.26a2.85,2.85,0,0,0,1.57-4.33A4.62,4.62,0,0,0,435.08,170.18Zm4.48,2a.86.86,0,0,1,0,1.18,1.78,1.78,0,0,1-2.66.25,1.12,1.12,0,0,1,.11-1.92A2.13,2.13,0,0,1,439.56,172.23Z"/><path class="cls-1" d="M448.69,110.47c-2.08-1.52-4.19-1.47-5.47-.16a2.44,2.44,0,0,0-.77,2.34,15.57,15.57,0,0,0,.39,1.53,2.77,2.77,0,0,0,2.12,2.06c.73.15,1.55.58,2.16.38a6.08,6.08,0,0,0,3.12-2,1.81,1.81,0,0,0,.12-2.18C449.75,111.63,449,110.87,448.69,110.47Zm-1.43,1.8a1.22,1.22,0,0,1-.2,1.64,10.55,10.55,0,0,1-.88.89,2.43,2.43,0,0,1-1.59-2.5,1.14,1.14,0,0,1,.48-.83A1.87,1.87,0,0,1,447.26,112.27Z"/><path class="cls-1" d="M411.44,201.73a1.89,1.89,0,0,0-2.33,1.11c-1.77,2.2-.27,5.41,1.55,6.4,1.21.67,4.48-.69,4.79-2.06a9.57,9.57,0,0,0,.15-2.57,1.89,1.89,0,0,0-.59-1.12A6.67,6.67,0,0,0,411.44,201.73Zm1.36,3.07a1.85,1.85,0,0,1,.06,2,1,1,0,0,1-1.29.32,2.42,2.42,0,0,1-1.1-2.23,1,1,0,0,1,.56-.72A1.64,1.64,0,0,1,412.8,204.8Z"/><path class="cls-1" d="M451.1,157.5c-2.36-1-4.16.23-4.36,2.82a4.49,4.49,0,0,0,3.17,4.79,1.72,1.72,0,0,0,2.21-.49c.28-.36.85-.46,1.23-.75a5.13,5.13,0,0,0,1.26-1.15c1-1.52.68-2.72-1-3.89A23.44,23.44,0,0,0,451.1,157.5Zm-.63,1.68a10.5,10.5,0,0,1,1.18.6c1.19.82,1.29,1.65.4,2.46a3.77,3.77,0,0,1-1.26.75,1,1,0,0,1-.92-.18,6.68,6.68,0,0,1-1.2-2A1.36,1.36,0,0,1,450.47,159.18Z"/><path class="cls-1" d="M487.71,179.35a3.65,3.65,0,0,0-3.87,1.09,3.13,3.13,0,0,0-.66,3.38,13,13,0,0,0,.58,1.46,2.39,2.39,0,0,0,2.36,1.66,2.7,2.7,0,0,1,.75,0c2,.55,3.07-.73,4-1.76.95-1.43,1-2.28.12-3.39A6.81,6.81,0,0,0,487.71,179.35Zm-.78,2a3.28,3.28,0,0,1,2.16,1.84,3.42,3.42,0,0,1-1.56,2.83,15.23,15.23,0,0,1-1.78-1.34,3.86,3.86,0,0,1-.79-1.31,1.56,1.56,0,0,1,.37-1.67A1.36,1.36,0,0,1,486.93,181.32Z"/><path class="cls-1" d="M433.8,152.68c-1.41-.68-2.82-1.23-4.24-.26a2.57,2.57,0,0,0-.87.83,4.76,4.76,0,0,0,2.22,6.19,4.07,4.07,0,0,0,4.44-1.31A3.67,3.67,0,0,0,433.8,152.68Zm-.94,1.73a1.56,1.56,0,0,1,.61,1.81,3.86,3.86,0,0,1-.2.74c-.27.74-1,.94-1.95.16a13.52,13.52,0,0,1-.95-1.82,1.25,1.25,0,0,1,.43-1.05A1.67,1.67,0,0,1,432.86,154.41Z"/><path class="cls-1" d="M473.91,181.67c-1.29-.91-2.18-1.46-3.38-1.23-2.88.57-3.44,3.54-2.27,5.6a4.39,4.39,0,0,0,2.53,2.06,1.43,1.43,0,0,0,1.79-.46,3.73,3.73,0,0,1,1.49-1.22c1.82-1,2-2.66.46-4.21A5.76,5.76,0,0,0,473.91,181.67ZM472,183c.76.52,1,1.13.67,1.72-.55,1-1.44,1.37-2,.91a2,2,0,0,1-.64-2.53C470.44,182.51,471.17,182.47,472,183Z"/><path class="cls-1" d="M460.08,172.45a3.2,3.2,0,0,0-4.66,1.33,5.21,5.21,0,0,0,.91,5.63,4.18,4.18,0,0,0,1.47,1c.88.36,1.41.1,1.7-.86.16-.51.24-1,.74-1.24a1.68,1.68,0,0,0,.4-.3C462.69,175.68,462,174.12,460.08,172.45Zm-1,2.25a1.62,1.62,0,0,1,.25,1.17,2.31,2.31,0,0,1-1.3,1.64,2.38,2.38,0,0,1-.76-2.57,1.18,1.18,0,0,1,.81-.77A1.26,1.26,0,0,1,459.06,174.7Z"/><path class="cls-1" d="M447.43,143.63c-1.34-.89-2.7-1.41-4.24-.71a3,3,0,0,0-1.95,3,3.34,3.34,0,0,0,2.32,3.13,12,12,0,0,0,3.43.23,2.1,2.1,0,0,0,2.09-1.82,3.42,3.42,0,0,0-1-3.33A4.74,4.74,0,0,0,447.43,143.63Zm-1.94,1.68a2.56,2.56,0,0,1,.89.9c.13.25,0,.65,0,1a3.12,3.12,0,0,1-1,.23,2.28,2.28,0,0,1-.91-.42c-.84-.54-1.16-1.24-.81-1.67A1.36,1.36,0,0,1,445.49,145.31Z"/><path class="cls-1" d="M424.69,164.91a5.17,5.17,0,0,0-3-.95,2.06,2.06,0,0,0-2.08,1.84,5.47,5.47,0,0,0,1.81,4.94,2.87,2.87,0,0,0,2.17.43,3.47,3.47,0,0,0,3.19-2.73,2,2,0,0,0-.41-1.73C425.83,166.05,425.2,165.45,424.69,164.91Zm-2.12,1.65a1.88,1.88,0,0,1,.52.24,5.34,5.34,0,0,1,.5.43,1.06,1.06,0,0,1,.14,1.38c-.28.35-.84.27-1.25-.22a4.52,4.52,0,0,1-.67-1.06.75.75,0,0,1,.11-.67C422.05,166.53,422.35,166.54,422.57,166.56Z"/><path class="cls-1" d="M403,161.49a3.19,3.19,0,0,0-4.09,1.82,3.56,3.56,0,0,0,1.5,4.71,4.75,4.75,0,0,0,1.65.56c.36,0,1-.07,1.09-.32.4-.79,1.12-.94,1.77-1.28a2.31,2.31,0,0,0,.78-3.62,9.44,9.44,0,0,0-1.1-1.09C404.05,162,403.53,161.7,403,161.49Zm-.25,2.49a1.12,1.12,0,0,1,.08,1.62c-.52.76-1.12,1-1.66.53a1.48,1.48,0,0,1-.38-2.07A1.26,1.26,0,0,1,402.74,164Z"/><path class="cls-1" d="M398.27,145.79a2.35,2.35,0,0,0-1.49,1.23c-.78,1.53-.35,4.37.92,5.36a2.67,2.67,0,0,0,1.65.48,9.55,9.55,0,0,0,2.42-.44,2.79,2.79,0,0,0,1.7-3.74A4.21,4.21,0,0,0,398.27,145.79Zm1.26,2.05a1.69,1.69,0,0,1,1.39,1.32,1,1,0,0,1-.44,1.3c-.44.29-.87.43-1.31,0a1.89,1.89,0,0,1-.4-2.45A1.84,1.84,0,0,1,399.53,147.84Z"/><path class="cls-1" d="M439.58,183.36c-2.59-1.17-4.66.42-4.56,3.41a3.57,3.57,0,0,0,2.22,3.53,1.73,1.73,0,0,0,1.41,0,5.56,5.56,0,0,1,2.28-.86,2.52,2.52,0,0,0,1-.61c1-1.42.94-2.76-.08-3.81A7.78,7.78,0,0,0,439.58,183.36Zm.66,3a1,1,0,0,1-.5,1.28,3.06,3.06,0,0,1-2.39,0,9.19,9.19,0,0,1-.19-1.61,1.11,1.11,0,0,1,.93-1A1.84,1.84,0,0,1,440.24,186.36Z"/><path class="cls-1" d="M471.5,195.16a3.23,3.23,0,0,0-.3,3.21,4.6,4.6,0,0,0,.93,1.57,2,2,0,0,0,1.28.65,18,18,0,0,0,3.18-.33,2.94,2.94,0,0,0,2-1.52,2.4,2.4,0,0,0-.16-3C476.88,193.35,473.17,193,471.5,195.16Zm3.42.82a1.79,1.79,0,0,1,1.56,1.14.93.93,0,0,1-.07.73,2.46,2.46,0,0,1-.69.71,1.63,1.63,0,0,1-2.66-.74,2.59,2.59,0,0,1-.14-.85A1.88,1.88,0,0,1,474.92,196Z"/><path class="cls-1" d="M462.81,210.07a4,4,0,0,0-5.11,1.23,4.66,4.66,0,0,0,.46,5.13,2,2,0,0,0,1.78.81,12.83,12.83,0,0,0,1.95-.34c2.17-.49,2.64-1.24,2.46-3.68A3.62,3.62,0,0,0,462.81,210.07Zm-1.53,1.78c.76.47.76,1.31.84,2.07a1.3,1.3,0,0,1-.79,1.43,1,1,0,0,1-.45.17,2,2,0,0,1-1.56-1.16,1.88,1.88,0,0,1,0-1.93A1.6,1.6,0,0,1,461.28,211.85Z"/><path class="cls-1" d="M468.19,118.38a5.37,5.37,0,0,0-4.61-1.1c-1.29.26-1.78,1.08-1.54,2.45.3,1.76,2.23,4,3.82,4.19a4.46,4.46,0,0,0,2.12-.47c1-.42,2.09-.89,2.24-2.15C470.39,119.87,469.26,119.17,468.19,118.38Zm-3.31.79a5.58,5.58,0,0,1,1.19.41c1.24.59,1.31.92.52,2.36-1.87-.66-1.87-.66-2.6-2.65A3.18,3.18,0,0,1,464.88,119.17Z"/><path class="cls-1" d="M456.88,132.93a5.58,5.58,0,0,0-5.23-2,2.19,2.19,0,0,0-1.58,1.12,4,4,0,0,0,1.59,5.38,12.34,12.34,0,0,0,1.49.51c1.09-.57,2.22-1.09,3.28-1.73A2,2,0,0,0,456.88,132.93Zm-4.13-.17a2,2,0,0,1,1.83,1.08,2.24,2.24,0,0,1-1.45,1.85,2.27,2.27,0,0,1-1.43-1.36A1.12,1.12,0,0,1,452.75,132.76Z"/><path class="cls-1" d="M478.68,165.34a4.21,4.21,0,0,0-4.64-.06A3.63,3.63,0,0,0,473,169c.25,1.51,1.56,3.37,3.18,3.21.17,0,.39.07.49,0,1.14-.92,2.71-1.19,3.58-2.49a2.41,2.41,0,0,0-.38-3.27C479.41,166,479,165.62,478.68,165.34Zm-2.11,1.2a3.63,3.63,0,0,1,1.4,1,1.05,1.05,0,0,1,0,1.44c-.47.56-1,1-1.63,1.62a3.07,3.07,0,0,1-1.62-2.3C474.61,167.11,475.46,166.22,476.57,166.54Z"/><path class="cls-1" d="M459.77,198.82a3,3,0,0,0-4.35.94,4.61,4.61,0,0,0,.76,5.51,4,4,0,0,0,5.32-1.13C462.66,202.18,462.08,200.78,459.77,198.82Zm-.86,2.09a3.15,3.15,0,0,1,.59,1.13,6.8,6.8,0,0,1-.07,1.5,1.35,1.35,0,0,1-1.74.31,2.92,2.92,0,0,1-.82-2.58,1.18,1.18,0,0,1,1-.94A1,1,0,0,1,458.91,200.91Z"/><path class="cls-1" d="M419.1,146c-.39-.33-.82-.61-1.47-1.09-.66.13-1.3.24-1.93.4-1.5.37-2.08,1.51-2.17,3a3.68,3.68,0,0,0,2,3.67,2.1,2.1,0,0,0,2.54-.14c.63-.53,1.38-.9,2-1.43,1.13-.95,1.18-2.15.16-3.37A9.27,9.27,0,0,0,419.1,146ZM418,148.11a1,1,0,0,1-.18,1.38c-.36.32-.75.59-1.08.85a1.83,1.83,0,0,1-1.15-1.68,1.11,1.11,0,0,1,.71-1.2A1.4,1.4,0,0,1,418,148.11Z"/><path class="cls-1" d="M415.89,175c-1-.44-2.11-.88-3.05,0a3.75,3.75,0,0,0-1.27,3.7,5.86,5.86,0,0,0,1.52,2.7,1.84,1.84,0,0,0,.87.49,4.5,4.5,0,0,0,4.15-1,2.05,2.05,0,0,0,.65-2.12,5,5,0,0,0-2-3.25A6.06,6.06,0,0,0,415.89,175Zm-.87,1.82a2.06,2.06,0,0,1,1.39,1.74c.1.92-.44,1.43-1.38,1.75a3.37,3.37,0,0,1-1.48-2.5c0-.31.11-.8.33-.91A1.5,1.5,0,0,1,415,176.77Z"/><path class="cls-1" d="M494.47,154a6.39,6.39,0,0,0-4.62-.39c-2,.64-2.49,2.18-1.2,4a11.8,11.8,0,0,0,1.22,1.33,3.2,3.2,0,0,0,3.55.52,20,20,0,0,0,2.76-1.62,1.47,1.47,0,0,0,.3-1.89A3.9,3.9,0,0,0,494.47,154ZM493,155.5a1.07,1.07,0,0,1,.56,1.5,8.15,8.15,0,0,1-.87,1.12,4,4,0,0,1-.82-.19c-1.35-.72-2-1.7-1.63-2.25S491.92,155,493,155.5Z"/><path class="cls-1" d="M430.53,120.59a2.81,2.81,0,0,1,.46,2.94,3.91,3.91,0,0,1-2.34,2.47c-.19.07-.46,0-.73-.08-.21-1.12.54-1.81.85-2.66a1.68,1.68,0,0,0-.61-2.27,2.79,2.79,0,0,0-2.84-.34.85.85,0,0,0-.45,1.26c.45.72,1,1.39,1.44,2.08-1.48,1.1-2.41.93-3-.49a8.77,8.77,0,0,1-.52-1.49,2.52,2.52,0,0,1,1.2-2.86A5.28,5.28,0,0,1,430.53,120.59Z"/><path class="cls-1" d="M430.44,196.76a2.1,2.1,0,0,0-2.14.11,4.06,4.06,0,0,0-1.74,3.76,3.27,3.27,0,0,0,1.95,2.86c1.73.92,2.54.8,4-.55a10.61,10.61,0,0,0,1.08-1,2.06,2.06,0,0,0-.1-2.82,5.73,5.73,0,0,0-.56-.54l-1.22-1.08C431.33,197.25,430.9,197,430.44,196.76Zm-.78,1.83a6.93,6.93,0,0,1,.88.3c.29.32.54.56.76.83a1.14,1.14,0,0,1-.66,1.95,3,3,0,0,1-1,0,1.25,1.25,0,0,1-1.15-1.45,3.15,3.15,0,0,1,.17-1A.81.81,0,0,1,429.66,198.59Z"/><path class="cls-1" d="M432,132.08a12.55,12.55,0,0,0-2-.44,2.08,2.08,0,0,0-2.34,2.34,5.68,5.68,0,0,0,.68,2.77c.91,1.58,1.93,1.9,3.53,1.18.74-.33,1.55-.51,2.44-.8a2.86,2.86,0,0,0,.06-2.87C433.84,133.26,433.24,132.31,432,132.08Zm-.74,2a7.44,7.44,0,0,1,.89,1,5.17,5.17,0,0,1-.83.67c-.47.23-1,.31-1.26-.32A3,3,0,0,1,430,134C430,133.6,430.77,133.64,431.29,134.06Z"/><path class="cls-1" d="M442.39,200.73a2.93,2.93,0,0,0-3.33,3.58,7.82,7.82,0,0,0,.93,2.17,2.18,2.18,0,0,0,2.14,1.15,7.81,7.81,0,0,0,3.72-1.27,1.46,1.46,0,0,0,.46-2,8.35,8.35,0,0,0-2.72-3A6.12,6.12,0,0,0,442.39,200.73Zm-.27,2.29a2.93,2.93,0,0,1,1.42,1.79c0,.14,0,.33-.05.5s-.2.33-.33.35a2,2,0,0,1-2.15-2A.79.79,0,0,1,442.12,203Z"/><path class="cls-1" d="M389,166.88a4.08,4.08,0,0,0-3.61-.43,2.59,2.59,0,0,0-1.76,3.22,5.21,5.21,0,0,0,2.89,3.78c.79.39,1.08.27,1.8-.62a9.74,9.74,0,0,1,.85-.85l.85-.77A3.08,3.08,0,0,0,389,166.88Zm-1.4,1.65a1,1,0,0,1,.21,1.58c-.46.63-1.1.81-1.47.44a1.81,1.81,0,0,1-.54-2.12C386.1,168,386.84,168,387.55,168.53Z"/><path class="cls-1" d="M415.64,130a6,6,0,0,0-3.69.16,2.58,2.58,0,0,0-1.69,2.84c.09.86.33,1.71.53,2.7,1.12.29,1.92.54,2.74.72a3.46,3.46,0,0,0,4.25-3.18A3.23,3.23,0,0,0,415.64,130Zm-1.34,1.77a1.35,1.35,0,0,1,1.08,1.71,6.64,6.64,0,0,1-.31.74c-.78,1.23-1.52,1.24-2.21.17a4.6,4.6,0,0,1-.54-1.17,1,1,0,0,1,.56-1.26A3.55,3.55,0,0,1,414.3,131.77Z"/><path class="cls-1" d="M428,212.17a2.61,2.61,0,0,0-3.7,2.18,5.29,5.29,0,0,0,1.52,4.79c.49.53,1.33.85,1.82.42,1.21-1.05,3-1.52,3.46-3.78-.37-.67-.72-1.37-1.12-2A3.7,3.7,0,0,0,428,212.17Zm-.27,2.12c1.16.77,1.2,1.73.16,2.7a1.77,1.77,0,0,1-.63.27c-.87-.42-.88-1.26-1.05-2-.11-.45-.06-1,.38-1.09A1.46,1.46,0,0,1,427.77,214.29Z"/><path class="cls-1" d="M395.55,180a2.51,2.51,0,0,0-3.1.88,3.81,3.81,0,0,0-.46,3.93,3.13,3.13,0,0,0,2.69,2.09c1.4.09,2.83.3,4-.88a2.55,2.55,0,0,0,.45-3.29c-.4-.66-.91-1.25-1.38-1.88C397,180.55,396.26,180.23,395.55,180Zm.33,1.89.49.29c.2.21.45.45.68.7a1.4,1.4,0,0,1,.44,1.42,1.28,1.28,0,0,1-1.28,1,4.25,4.25,0,0,1-1.87-.54,1.9,1.9,0,0,1-.45-2.55A1.42,1.42,0,0,1,395.88,181.89Z"/><path class="cls-1" d="M445.78,121.24a9.42,9.42,0,0,0-2.94-.28,2.59,2.59,0,0,0-2.23,2.39,6.16,6.16,0,0,0,.87,3.52,1.38,1.38,0,0,0,.79.59,10,10,0,0,0,1.53.18c.86-.75,1.58-1.31,2.23-1.94a5,5,0,0,0,1.09-1.37A2.09,2.09,0,0,0,445.78,121.24Zm-1.36,2.05a1.85,1.85,0,0,1-1.19,1.77c-.53-.4-.84-.94-.5-1.53S443.77,122.9,444.42,123.29Z"/><path class="cls-1" d="M402.88,194.34a3.81,3.81,0,0,0-3.81-.39,2,2,0,0,0-1.23,1.81,5.23,5.23,0,0,0,1,4,1.8,1.8,0,0,0,3,.12,3.45,3.45,0,0,1,1.07-1,2.17,2.17,0,0,0,1.41-2.2C404.31,195.72,404,195.15,402.88,194.34ZM401,196.18c.45.31.28.74,0,1.08a2.42,2.42,0,0,1-.59.39,3.09,3.09,0,0,1-.54-.55.69.69,0,0,1,.25-1A1,1,0,0,1,401,196.18Z"/><path class="cls-1" d="M422.81,188a4.07,4.07,0,0,0-3-1.22c-2.51.12-3.13,1.9-2.54,3.93a8.77,8.77,0,0,0,1.52,2.39,1.12,1.12,0,0,0,.66.35,3.86,3.86,0,0,0,3.66-1c1.4-1.4,1.3-2.83-.14-4.29C422.76,187.92,422.56,187.76,422.81,188Zm-2.81.83a2.89,2.89,0,0,1,1.24.8,1.26,1.26,0,0,1-.34,1.81c-.37.25-.9.07-1.27-.51a6.39,6.39,0,0,1-.54-1.19c0-.14,0-.33.09-.64C419.42,189,419.75,188.73,420,188.81Z"/><path class="cls-1" d="M488,141.93a1.63,1.63,0,0,1-.11,1.73,3.66,3.66,0,0,1-4.35,1.35,19.1,19.1,0,0,0,1.44-1.52A1.19,1.19,0,0,0,485,142a2.25,2.25,0,0,0-2.16-1.08.87.87,0,0,0-.6,1.18c.22.37.59.63.8,1s.26.72.13.9a1,1,0,0,1-.86.32c-1.14-.14-1.72-.83-2.09-2.31a2.09,2.09,0,0,1,.73-2.31A4.75,4.75,0,0,1,488,141.93Z"/><path class="cls-1" d="M471,132.35a4,4,0,0,0-5.62.29,3.52,3.52,0,0,0,0,4.52,1.92,1.92,0,0,0,1.8.72c1.13-.19,2.25-.47,3.36-.72a1.32,1.32,0,0,0,.46-.19c1.64-1,2.41-2.39.36-4.32C471.31,132.54,471.16,132.45,471,132.35Zm-1.78.69a1.27,1.27,0,0,1,.49,2.22,4.71,4.71,0,0,1-1,.77,1.38,1.38,0,0,1-1.81-.24,1.72,1.72,0,0,1-.14-2.15A1.94,1.94,0,0,1,469.25,133Z"/><path class="cls-1" d="M454.16,186.71c-2.41-.85-4.11.31-4.3,2.92a3.67,3.67,0,0,0,1.67,3.07,2,2,0,0,0,2.53.18c.79-.44,1.63-.79,2.4-1.26,1.17-.71,1.32-1.63.5-2.8-.35-.49-.78-.92-1.15-1.35C455.22,187.2,454.7,186.9,454.16,186.71Zm.72,2.49c.15.26.26.82.12,1a4.16,4.16,0,0,1-1.54,1.11c-.54.19-1.46-.66-1.65-1.39a3.64,3.64,0,0,1,0-.93,2.24,2.24,0,0,1,.43-.44A2,2,0,0,1,454.88,189.2Z"/><path class="cls-1" d="M479,152.11a3.61,3.61,0,0,0-5.07.62,3,3,0,0,0-.23,3c1,2.3,1.24,2.49,3.59,1.9a7.93,7.93,0,0,0,2.08-.74c1.45-.87,1.62-2.29.54-3.75A10.1,10.1,0,0,0,479,152.11Zm-1.38,1.57c.49.4.38.93.21,1.45-.05.16-.11.32-.24.7-.24.16-.62.58-1,.64-.58.07-.79-.57-1-1a1.43,1.43,0,0,1-.14-.5,1.27,1.27,0,0,1,.58-1.33A1.35,1.35,0,0,1,477.66,153.68Z"/><path class="cls-1" d="M447.08,212.72a2.21,2.21,0,0,0-2.74.47,2.73,2.73,0,0,0-.71,2.63,3.67,3.67,0,0,0,3,2.88,4.5,4.5,0,0,0,3.44-2.09,2.72,2.72,0,0,0-1.46-3.14C448.14,213.26,447.61,213,447.08,212.72ZM446,214.66l1.25.92c-.29.72-.73.87-1.21.51S445.49,215.25,446,214.66Z"/><path class="cls-1" d="M493,167a4,4,0,0,0-3.58.13,2.36,2.36,0,0,0-.93,1.41,4.37,4.37,0,0,0,1.26,4.07,1.28,1.28,0,0,0,2,0c.54-.5,1.1-1,1.67-1.43C495,169.9,494.93,168.29,493,167Zm-1.61,1.69c.06.6.2.95.1,1.16s-.45.32-.69.47c-.11-.3-.33-.63-.27-.89S491,169.05,491.42,168.68Z"/><path class="cls-1" d="M563.78,110.79a.91.91,0,0,0-1.16.22,11,11,0,0,0-1.11,1.59,2.57,2.57,0,0,0,.77,2.57,1.06,1.06,0,0,0,.9,0,6.37,6.37,0,0,0,2-1.56,1.86,1.86,0,0,0,.14-2.29C564.77,111.16,564.26,111,563.78,110.79Zm-1.36,3.35.19,0-.1,0Z"/><path class="cls-1" d="M556,113.48a4.46,4.46,0,0,1,.79,4,1.39,1.39,0,0,1-2.25.6,4.09,4.09,0,0,1-.88-3,.76.76,0,0,1,.15-.28,13.6,13.6,0,0,1,1.05-1.21,2.36,2.36,0,0,1,.77-.34A2.72,2.72,0,0,1,556,113.48Z"/><path class="cls-1" d="M546.86,116.91a2.76,2.76,0,0,1,.48,3.47,1.08,1.08,0,0,1-1.49.47c-.83-.37-1.37-.81-1.51-1.42a11.12,11.12,0,0,1-.22-2,1,1,0,0,1,.36-.68A2.19,2.19,0,0,1,546.86,116.91Z"/><path class="cls-1" d="M539.84,113.15a3.14,3.14,0,0,1,.13,4.24,1.16,1.16,0,0,1-2-.37,4.68,4.68,0,0,1-.27-3.19C538.22,112.55,539,112.38,539.84,113.15Z"/><path class="cls-1" d="M550.45,125.11a15.69,15.69,0,0,1,1.07,2.08,2,2,0,0,1,0,.81,2.37,2.37,0,0,1-2,1.59,1.2,1.2,0,0,1-.78-.5,4.22,4.22,0,0,1-.45-2.76,2,2,0,0,1,1-1.41A.82.82,0,0,1,550.45,125.11Z"/><path class="cls-1" d="M569.62,124.71c.26.43.48.88.7,1.33a2,2,0,0,1-1.26,2.92.88.88,0,0,1-1-.34c-.63-.89-1.18-1.8-.49-2.9a3,3,0,0,0,.22-.62,1.34,1.34,0,0,1,1.33-.9A2.72,2.72,0,0,1,569.62,124.71Z"/><path class="cls-1" d="M538.94,102a2.59,2.59,0,0,0,.32.59,1.84,1.84,0,0,1,.18,1.72l-.14.33c-.26.51-.58.92-1.21.88a1.31,1.31,0,0,1-1.24-.92,8.76,8.76,0,0,1-.45-1.95,1.24,1.24,0,0,1,1.25-1.38A1.08,1.08,0,0,1,538.94,102Z"/><path class="cls-1" d="M541.89,108.32c.24.23.44.51.68.73a1.11,1.11,0,0,1,.3,1.22,2,2,0,0,1-1.64,1.58,1.23,1.23,0,0,1-1.36-.67,2.86,2.86,0,0,1-.35-2C540,107.8,541,107.53,541.89,108.32Z"/><path class="cls-1" d="M552.49,98.44a2.75,2.75,0,0,1,.77,3.31,1.65,1.65,0,0,1-.31.39,1.61,1.61,0,0,1-2.53-1.08c-.24-1,.39-1.68.82-2.41A.81.81,0,0,1,552.49,98.44Z"/><path class="cls-1" d="M553.92,106.65c.4.07.49.57.44,1a2.91,2.91,0,0,1-1.1,1.93,1.12,1.12,0,0,1-1.87-.69,7.73,7.73,0,0,1-.19-2.15,1.23,1.23,0,0,1,.88-1.17C552.8,105.78,553.17,106.53,553.92,106.65Z"/><path class="cls-1" d="M541,95.4a2.6,2.6,0,0,1,0,3.94.74.74,0,0,1-1.13-.08,2.68,2.68,0,0,1-.7-2.94,8.8,8.8,0,0,1,.59-.94A.78.78,0,0,1,541,95.4Z"/><path class="cls-1" d="M548.67,91.84a9.72,9.72,0,0,1,1,1.5,1,1,0,0,1,.06.65,3.87,3.87,0,0,1-.23.62c-.17.57-.23.85-.33,1.1a.94.94,0,0,1-1.76.05,2.9,2.9,0,0,1-.34-1.12,15.74,15.74,0,0,1,.18-2.48A.78.78,0,0,1,548.67,91.84Z"/><path class="cls-1" d="M560,98.66a2,2,0,0,1,1,2.1c-.05.33-.13.65-.21,1a6.32,6.32,0,0,1-.51.8,1,1,0,0,1-1.77-.41,9.6,9.6,0,0,1-.39-2,1.82,1.82,0,0,1,1.54-1.6A.8.8,0,0,1,560,98.66Z"/><path class="cls-1" d="M558.88,107.16a11.39,11.39,0,0,1,.55,1,1.9,1.9,0,0,1-1.51,2.63,1.87,1.87,0,0,1-.34-.07,1.42,1.42,0,0,1-.33-.32,4,4,0,0,1-.5-2.59,1.8,1.8,0,0,1,.58-.94C558,106.3,558.42,106.39,558.88,107.16Z"/><path class="cls-1" d="M547.81,110.74a3.69,3.69,0,0,0,.61,2.54,1.14,1.14,0,0,0,2.12-.26,2.67,2.67,0,0,0-.76-3A1.21,1.21,0,0,0,547.81,110.74Zm1.41.71a1.13,1.13,0,0,1,0,.26s-.07,0-.11.06,0-.18,0-.28Z"/><path class="cls-1" d="M561.22,123.55a4.64,4.64,0,0,1-.67,2.14,1.84,1.84,0,0,1-.5.38,1.09,1.09,0,0,1-1.52-.48,3.11,3.11,0,0,1-.11-2.74.88.88,0,0,1,1.33-.43C560.25,122.74,560.7,123.15,561.22,123.55Z"/><path class="cls-1" d="M559.73,94.27a1,1,0,0,1-.53.31,1.47,1.47,0,0,1-1.73-1.12,3.22,3.22,0,0,1,0-1.74c.38-1,1.13-1.33,1.73-1A2.48,2.48,0,0,1,559.73,94.27Z"/><path class="cls-1" d="M537.16,119.74c.18.41.4.81.54,1.23a1.42,1.42,0,0,1,0,.79,1.31,1.31,0,0,1-1.81.81,2.38,2.38,0,0,1-1.08-2.86c.3-.69.93-.65,1.5-.68S537,119.35,537.16,119.74Z"/><path class="cls-1" d="M544.09,103.08a2.35,2.35,0,0,1,.5,2.34,1.5,1.5,0,0,1-1.15,1,1.55,1.55,0,0,1-1.46-.88,2.59,2.59,0,0,1,.41-2.49A1.11,1.11,0,0,1,544.09,103.08Z"/><path class="cls-1" d="M537.62,126.28a4.4,4.4,0,0,1,1,1.86,2.6,2.6,0,0,1-1.73,1.39.93.93,0,0,1-1.07-.54,2.53,2.53,0,0,1,.38-2.65A.87.87,0,0,1,537.62,126.28Z"/><path class="cls-1" d="M564.66,139.28c.28.33.62.6.91.93a.79.79,0,0,1,.11.93,2.2,2.2,0,0,1-1.49,1.1,1,1,0,0,1-1-.4,2.39,2.39,0,0,1-.35-2.19,1.14,1.14,0,0,1,.87-.88C564.14,138.69,564.4,139,564.66,139.28Z"/><path class="cls-1" d="M569.47,107.69a4.26,4.26,0,0,1-.32.93.86.86,0,0,1-1.47.09,3.61,3.61,0,0,1-.69-2,1.05,1.05,0,0,1,1.45-1A1.63,1.63,0,0,1,569.47,107.69Z"/><path class="cls-1" d="M566.66,117.26a.44.44,0,0,1,.7,0,1.48,1.48,0,0,1-.05,2.31,3.07,3.07,0,0,1-.51.38c-.76.45-1.32.25-1.62-.66a4.93,4.93,0,0,1-.24-1.48c0-.23.19-.47.32-.74l1.11.5A4.38,4.38,0,0,1,566.66,117.26Z"/><path class="cls-1" d="M550,140.71a3,3,0,0,1,0,2.48s-.1.21-.22.39a.71.71,0,0,1-1.11.1,1.84,1.84,0,0,1-.54-.82,9.58,9.58,0,0,1-.09-2,1,1,0,0,1,.8-.91A1.17,1.17,0,0,1,550,140.71Z"/><path class="cls-1" d="M553.8,139.6a3.77,3.77,0,0,1-.89.65.81.81,0,0,1-1.17-.48,3.64,3.64,0,0,1-.12-1.86c.23-.66,1.12-1.11,1.6-.84A1.69,1.69,0,0,1,553.8,139.6Z"/><path class="cls-1" d="M543.34,123.8a13.44,13.44,0,0,1,.65,1.75c-.35.28-.66.55-1,.79a.82.82,0,0,1-1.32-.39,2.66,2.66,0,0,1,.18-2.7.71.71,0,0,1,.68-.21A1.92,1.92,0,0,1,543.34,123.8Z"/><path class="cls-1" d="M544.52,129.84a7.12,7.12,0,0,1-.34,1.11.69.69,0,0,1-.95.32,1.35,1.35,0,0,1-.85-1,9.65,9.65,0,0,1-.21-1.68.88.88,0,0,1,1.35-.81A1.53,1.53,0,0,1,544.52,129.84Z"/><path class="cls-1" d="M554.53,133a4.24,4.24,0,0,1-.39.54.85.85,0,0,1-1.37-.08,2.1,2.1,0,0,1-.22-2.46.87.87,0,0,1,1-.41A1.89,1.89,0,0,1,554.53,133Z"/><path class="cls-1" d="M560.12,132.29a10.14,10.14,0,0,1,.2,1.6,4.69,4.69,0,0,1-.46.58c-.69.62-1.24.48-1.65-.4a1.67,1.67,0,0,1,.37-2.25A.91.91,0,0,1,560.12,132.29Z"/><path class="cls-1" d="M557.9,139a5.94,5.94,0,0,1,.58.81,1.62,1.62,0,0,1,0,1.87,10.36,10.36,0,0,1-.9.93c-.45-.6-1-.89-1-1.52a3.15,3.15,0,0,1,.49-2A.52.52,0,0,1,557.9,139Z"/><path class="cls-1" d="M545.16,134.62a6.57,6.57,0,0,1,.29,1.65.9.9,0,0,1-1.33.82,2.91,2.91,0,0,1-.49-.47,2,2,0,0,1,0-2.2,1,1,0,0,1,.8-.38A1.07,1.07,0,0,1,545.16,134.62Z"/><path class="cls-1" d="M565.68,128.82c.26.21.52.39.77.6a1.2,1.2,0,0,1,.21,1.64,1.07,1.07,0,0,1-1.55.24,1.66,1.66,0,0,1-.53-2.23C564.8,128.47,565.15,128.39,565.68,128.82Z"/><path class="cls-1" d="M538.52,132.24c.26.61.49,1.25.69,1.88a1,1,0,0,1-.59,1.2.93.93,0,0,1-1.21-.5,2.83,2.83,0,0,1-.08-2.28c.07-.14.1-.33.21-.42a.8.8,0,0,1,.53-.27A.69.69,0,0,1,538.52,132.24Z"/><path class="cls-1" d="M563.88,134.57a.9.9,0,0,1,.47,1.26c0,.1-.08.2-.13.3-.36.69-.94,1.07-1.38.83a1.34,1.34,0,0,1-.65-1.43c0-.54-.17-1.2.41-1.5S563.47,134.36,563.88,134.57Z"/><path class="cls-1" d="M552,121.33a1.79,1.79,0,0,1-.5,2.36.78.78,0,0,1-1.23-.54,11.35,11.35,0,0,1,0-1.42c.14-.69.4-1,.72-1.08A1,1,0,0,1,552,121.33Z"/><path class="cls-1" d="M559.26,144.51a7.47,7.47,0,0,1,.35,1.29,1,1,0,0,1-.9,1.26c-.45.07-.78-.29-.85-1,0-.43,0-.87,0-1.18.17-.26.25-.4.35-.53s.35-.45.65-.31A.94.94,0,0,1,559.26,144.51Z"/><path class="cls-1" d="M569.29,137.82a14.5,14.5,0,0,1,1.06,1,.91.91,0,0,1,.1,1.08.8.8,0,0,1-1,.28,1.94,1.94,0,0,1-1-2.06A.49.49,0,0,1,569.29,137.82Z"/><path class="cls-1" d="M553.6,92.25a7.41,7.41,0,0,1-.07,1.09,5.09,5.09,0,0,1-.82.6c-.22.1-.53-.31-.66-.83,0-.21-.11-.43-.14-.65-.09-.67.2-1,.89-1C553.26,91.39,553.57,91.69,553.6,92.25Z"/><path class="cls-1" d="M555.51,125.2c-.08.49-.12,1-.23,1.46a.57.57,0,0,1-.92.19,1.57,1.57,0,0,1-.47-1.36c0-.54.16-1,.81-1.09Z"/><path class="cls-1" d="M386.68,313.57c-1.58,2.47-3.36,4.79-5.1,7.15a9.44,9.44,0,0,1-1,1.09c-2.13,1.6-4.21.29-4.34-1.66s0-3.46,1.3-4.79c.7-.71,1.26-1.58,2-2.3,1.86-1.93,3.75-3.83,5.64-5.73a2,2,0,0,1,2.4-.6c.8.36,1.22,1.34.83,2.77A14.31,14.31,0,0,1,386.68,313.57Z"/><path class="cls-1" d="M311.65,303.47a5.44,5.44,0,0,1-5-2.37A73.89,73.89,0,0,1,299,289.83a23.88,23.88,0,0,1-1-2.6,1.9,1.9,0,0,1,.53-2.2c.55-.4,1.35-.14,2,.66.15.17.26.38.41.56,3.45,4.23,6.87,8.48,10.38,12.66a7.59,7.59,0,0,1,1.4,3.14A1.15,1.15,0,0,1,311.65,303.47Z"/><path class="cls-1" d="M352.48,321.6a1.79,1.79,0,0,1-2,.89,6.66,6.66,0,0,1-3.88-2c-2.06-1.85-4-3.82-5.93-5.85-1.18-1.26-2.16-2.73-3.08-3.91a7.19,7.19,0,0,1-.68-1.89,2.15,2.15,0,0,1,.47-1.55,1.6,1.6,0,0,1,1.49-.13,16.67,16.67,0,0,1,3.12,2.09c3.11,2.76,6.15,5.6,9.21,8.42a9.37,9.37,0,0,1,1.17,1.27A2.49,2.49,0,0,1,352.48,321.6Z"/><path class="cls-1" d="M313.69,238.34a17.86,17.86,0,0,0-4,6.21c-.35.93-.69,2.2-2,1.89-1.08-.27-1.36-1.5-1.63-2.51-1.14-4.24,1.16-9.86,4.91-11.84a26.9,26.9,0,0,1,4.28-1.71c.45-.15,1,.12,1.88.25A12.88,12.88,0,0,1,313.69,238.34Z"/><path class="cls-1" d="M339.28,244.53c-2.25-2.78-4.48-5.61-6.53-8.56a33.66,33.66,0,0,1-2.49-5,1.41,1.41,0,0,1,2.21-1.72,16.28,16.28,0,0,1,2,1.87c2.68,3,5.32,6.09,8,9.12A5.56,5.56,0,0,1,344,245.8,3.7,3.7,0,0,1,339.28,244.53Z"/><path class="cls-1" d="M338.66,296.15a3.08,3.08,0,0,1-1.94-.15,21.82,21.82,0,0,1-3.57-2,24.62,24.62,0,0,1-6.74-7.28,29.94,29.94,0,0,1-.66-3.2,1.22,1.22,0,0,1,1.78-1.3,21.38,21.38,0,0,1,4,2.59c2.35,2,4.52,4.31,6.83,6.4a4.86,4.86,0,0,1,1.35,3.8C339.72,295.43,339.1,296,338.66,296.15Z"/><path class="cls-1" d="M291.62,263.66a6.09,6.09,0,0,1-.7,1.15,1.29,1.29,0,0,1-2.33-.53,12.09,12.09,0,0,1,.17-8.51,37.18,37.18,0,0,1,3.61-6.08,9.42,9.42,0,0,1,2.53-2.1c.64-.44,1.61,0,2.09,1.2a7.45,7.45,0,0,1-.11,2A87.42,87.42,0,0,1,291.62,263.66Z"/><path class="cls-1" d="M314.53,267.51a13.25,13.25,0,0,1,.81,3,1.36,1.36,0,0,1-.49,1.15,1.35,1.35,0,0,1-1.22-.16,11.19,11.19,0,0,1-2.31-2.08A30.58,30.58,0,0,1,305,255.52a11.25,11.25,0,0,1-.16-2.77,1.69,1.69,0,0,1,.91-1.25,1.68,1.68,0,0,1,1.49.46,18.05,18.05,0,0,1,1.91,3.3c1,2.25,1.9,4.55,3,7.26C312.84,263.9,313.76,265.68,314.53,267.51Z"/><path class="cls-1" d="M327.3,261.31c-2.13.27-4.1,0-5.64-2a39.92,39.92,0,0,1-5.59-8.88,9.89,9.89,0,0,1-.74-2,2.12,2.12,0,0,1,.22-1.57,1.75,1.75,0,0,1,1.5-.28,6.86,6.86,0,0,1,3.5,2.67c1.78,2.16,3.55,4.32,5.29,6.51a14.48,14.48,0,0,1,1.36,2A3.51,3.51,0,0,1,327.3,261.31Z"/><path class="cls-1" d="M370,309.51a8.54,8.54,0,0,1-2.39-1.21,48.77,48.77,0,0,1-8.31-8.25,6.21,6.21,0,0,1-1.76-3.72,2,2,0,0,1,.59-1.46,1.61,1.61,0,0,1,1.51,0,20.06,20.06,0,0,1,3.24,2.51c2.72,2.66,5.35,5.41,8,8.12a4.46,4.46,0,0,1,1.35,3.09A1.75,1.75,0,0,1,370,309.51Z"/><path class="cls-1" d="M305.94,281.89a54.37,54.37,0,0,1-7.71-11.55,6.81,6.81,0,0,1-.54-2c-.1-.69.79-1.41,1.32-1a19.27,19.27,0,0,1,3.42,2.8c2.41,2.79,4.72,5.7,7,8.63a32.43,32.43,0,0,1,2,3.52C308,283.53,307.36,283.55,305.94,281.89Z"/><path class="cls-1" d="M341.29,323.7a6.08,6.08,0,0,1-4.79-.77,21.07,21.07,0,0,1-7.78-8.63,4.49,4.49,0,0,1-.3-.95,1.4,1.4,0,0,1,1.72-1.77,8.6,8.6,0,0,1,2.4,1.21c1.54,1.17,3,2.43,4.47,3.74q2.55,2.31,5,4.77A1.4,1.4,0,0,1,341.29,323.7Z"/><path class="cls-1" d="M357.12,248.79a6.8,6.8,0,0,1-3.93-1.78,24.16,24.16,0,0,1-5.82-7.78,2.05,2.05,0,0,1,.14-2.29,1.92,1.92,0,0,1,2.42-.49,9.31,9.31,0,0,1,2,1.35,61.62,61.62,0,0,1,7.51,8.2,7.15,7.15,0,0,1,.53,1.1A2.49,2.49,0,0,1,357.12,248.79Z"/><path class="cls-1" d="M332.19,279.4a3,3,0,0,1-1.49-.65c-1.17-1.11-2.29-2.28-3.35-3.49a38,38,0,0,1-5.24-7.84,15.1,15.1,0,0,1-1.15-3.29,1.37,1.37,0,0,1,.44-1.19,1.86,1.86,0,0,1,1.51-.1,5.82,5.82,0,0,1,1.83,1.52,103.34,103.34,0,0,1,8,11.84c.25.58.51,1.11.7,1.66A1.19,1.19,0,0,1,332.19,279.4Z"/><path class="cls-1" d="M350.15,271.21a2.85,2.85,0,0,1-2.53-.59,27.07,27.07,0,0,1-8.14-9.2c-.27-.72-.69-1.69-1-2.68a1.75,1.75,0,0,1,.44-1.9,1.66,1.66,0,0,1,2.14,0,8.37,8.37,0,0,1,1.52,1.39q3.81,4.74,7.54,9.53a7.3,7.3,0,0,1,.93,1.85A1.21,1.21,0,0,1,350.15,271.21Z"/><path class="cls-1" d="M349.79,284.49c-1,1.12-1.82,2.16-1.23,3.79a1.25,1.25,0,0,1-.53,1.11,2.45,2.45,0,0,1-1.55-.1,2.93,2.93,0,0,1-1-.94,15.71,15.71,0,0,1-3.5-7.94,19.06,19.06,0,0,1-.07-3.85c.16-1.86,1.2-2.26,2.74-1.33a7.76,7.76,0,0,1,3.37,4.29C348.57,281.07,349.13,282.62,349.79,284.49Z"/><path class="cls-1" d="M380,264.5a7.36,7.36,0,0,1-5.25-1.93c-1.79-1.61-3.48-3.35-5.17-5.08a9.41,9.41,0,0,1-1.07-1.54c-.17-.42-.26-.63-.33-.85-.53-1.6.53-2.93,2.06-2.4a9.78,9.78,0,0,1,2.9,1.7c2.22,1.81,4.36,3.72,6.5,5.64a9.17,9.17,0,0,1,1.55,1.85C382.1,263.29,381.55,264.46,380,264.5Z"/><path class="cls-1" d="M370.74,275.16a10.35,10.35,0,0,1-2.7-1.35,36.93,36.93,0,0,1-8.29-9.74,8.87,8.87,0,0,1-.66-2,2,2,0,0,1,.45-1.5,1.62,1.62,0,0,1,1.5-.21,9.92,9.92,0,0,1,2.41,1.88c1.44,1.49,2.81,3.05,4.15,4.65s2.6,3.26,3.87,4.91a2.53,2.53,0,0,1,.62,2.26C371.9,274.91,371.43,275.43,370.74,275.16Z"/><path class="cls-1" d="M392.79,279.62c.25,1.73.4,3.48.51,5.23.06.8,0,1.71-.78,2.12a2.34,2.34,0,0,1-2.51-.44,3.77,3.77,0,0,1-1.66-2.55c-.26-1.85-.75-3.68-.9-5.53a38.5,38.5,0,0,1,.07-5.58c.1-1.37.72-2.41,2.31-2.36a5.76,5.76,0,0,1,1.91,3.6C392.09,276,392.51,277.78,392.79,279.62Z"/><path class="cls-1" d="M326.41,319.1c-1.34.12-2.65.19-3.94.37-3.83.53-7.17-1-10.39-3a4.44,4.44,0,0,1-1.32-1.55,1.6,1.6,0,0,1,1.07-2.39,6.54,6.54,0,0,1,2.61.15c3.94,1.28,7.85,2.65,11.76,4,.52.18,1.09.52.92,1.25A4.83,4.83,0,0,1,326.41,319.1Z"/><path class="cls-1" d="M355.4,312.28a31,31,0,0,1-5.2-6.94,44.25,44.25,0,0,1-1.83-4.17A1.81,1.81,0,0,1,349,299a3.77,3.77,0,0,1,2.9,1.42,41.29,41.29,0,0,1,6.71,9.28,6.07,6.07,0,0,1,.51,4.19A4,4,0,0,1,355.4,312.28Z"/><path class="cls-1" d="M304.25,312.79c-3.24.34-4.5-.11-5.34-2.22-1.16-2.93-2.12-6-3.11-9a6.91,6.91,0,0,1-.19-2.09,2,2,0,0,1,1-2c.64-.3,1.39.15,2.15,1.27.13.19.25.39.37.6a61.62,61.62,0,0,1,5.16,11.9A5.6,5.6,0,0,1,304.25,312.79Z"/><path class="cls-1" d="M382.86,293.29a1.91,1.91,0,0,1-.31,1.54,1.38,1.38,0,0,1-1.83-.06,6.62,6.62,0,0,1-2.6-3.62c-.66-2.24-1.23-4.51-1.68-6.8a11.73,11.73,0,0,1-.05-3.45,4.13,4.13,0,0,1,.85-1.81,1.5,1.5,0,0,1,2.34,0c.3.35.54.75,1,1.37a23.45,23.45,0,0,1,.71,3.5A45.82,45.82,0,0,0,382.86,293.29Z"/><path class="cls-1" d="M333.42,244.68a6.64,6.64,0,0,1-.74,7,2.65,2.65,0,0,1-2.9-2,33.5,33.5,0,0,1-1.92-5.64,24.59,24.59,0,0,1-.24-5.88c0-.64.76-1.31,1.31-1.79s1.44.26,1.93,1.06a7.51,7.51,0,0,1,.76,1.56C332.24,240.9,332.68,242.85,333.42,244.68Z"/><path class="cls-1" d="M321.06,303.11a2,2,0,0,1-2.38,2.45,6.45,6.45,0,0,1-1.83-1.32,9.26,9.26,0,0,1-.44-1.07A47.38,47.38,0,0,1,315,292.39a6.55,6.55,0,0,1,.32-1.69c.19-.67,1.17-1.09,1.61-.63.77.82,1.79,1.68,2,2.69C319.86,296.17,320.46,299.64,321.06,303.11Z"/><path class="cls-1" d="M370.19,296a5.5,5.5,0,0,1-3.89-1.77,48.71,48.71,0,0,1-5.91-8.15,4.42,4.42,0,0,1-.45-1.31,1.22,1.22,0,0,1,1.1-1.4,4.07,4.07,0,0,1,2.72,1.18,34.21,34.21,0,0,1,7.3,8.94l.26.48C371.94,295.17,371.48,296,370.19,296Z"/></g></g></svg>